<svg xmlns="http://www.w3.org/2000/svg">
<defs>
<font id="f678e10c1f5609a8428c245cc86aa255" horiz-adv-x="1024">
            <font-face font-family="BravuraText" font-weight="400" font-stretch="normal" units-per-em="2048" panose-1="5 6 0 0 0 0 0 0 0 0" ascent="1638" descent="-410" bbox="-889 -4085.25 7178 5754" underline-thickness="102" underline-position="-102" unicode-range="U+0020-1D1DD"/>
            <missing-glyph horiz-adv-x="608"/>
            <glyph glyph-name="uniE527" unicode="" horiz-adv-x="7178" d="M6463 232q0 -120 68 -121q57 -1 134 81t145 232t67 256q0 108 -45 135q-6 2 -22 2q-57 0 -132 -82t-137 -211q-78 -172 -78 -292zM5360 111q55 -1 132 81q76 82 144 232t68 256q0 108 -43 135q-10 2 -27 2q-55 0 -131 -83q-75 -84 -145 -230t-70 -256t47 -133q8 -4 25 -4 zM4528 678q0 108 -43 137q-8 2 -24 2q-55 0 -131 -83q-76 -84 -146 -230q-68 -146 -68 -258t43 -131q10 -4 25 -4q55 -1 132 81t138 209q74 169 74 277zM3011 111q57 -1 134 81t143 232t67 256q0 108 -43 135q-10 2 -25 2q-55 0 -132 -83t-138 -210q-74 -164 -74 -276 t45 -133q6 -4 23 -4zM1839 111q57 -1 133 81t144 232t67 256q0 108 -45 135q-6 2 -22 2q-55 0 -131 -83q-76 -84 -145 -230q-68 -146 -68 -258t43 -131q6 -4 24 -4zM666 111q55 -1 132 81q76 82 144 232t68 256q0 108 -43 135q-10 2 -27 2q-55 0 -131 -83t-137 -210 q-78 -172 -78 -278t47 -131q8 -4 25 -4zM6550 758q14 0 32 18q45 54 153 110t207 56q100 0 168 -88t68 -226t-57 -270q-42 -87 -157 -211q-60 -67 -144 -109t-172 -42h-15q-145 12 -208 61q-10 8 -29 25t-29 16q-20 0 -35 -55q-115 -273 -133 -317t-18 -70t41 -25h104 q47 0 47 -41q0 -18 -13 -32t-38 -15h-702q-25 1 -38 15t-13 30q0 43 51 43h151q47 0 66 31l432 1000q12 61 12 77q0 61 -39 62q-18 0 -41 -15q-86 -43 -202 -235q-21 -161 -112 -286q-38 -52 -97 -117q-60 -64 -144 -108t-172 -44h-14q-152 14 -213 61q-45 41 -53 41 q-20 0 -37 -55q-150 -362 -151 -387t38 -25h109q45 0 45 -41q0 -47 -51 -47h-701q-23 1 -38 15t-15 31t14 29t39 13h154q47 0 59 31l434 1000q12 61 13 77q0 61 -37 62q-20 0 -43 -15q-78 -39 -201 -235q-13 -115 -43 -175t-68 -111q-38 -52 -99 -118q-60 -67 -144 -109 t-170 -42h-17q-145 14 -203 58t-63 44q-16 0 -35 -55q-115 -273 -133 -319t-18 -66q0 -27 41 -27h104q47 0 47 -41q0 -18 -13 -32t-38 -15h-702q-23 1 -37 15q-32 33 -1 61q13 12 38 12h151q47 0 66 31l432 1000q14 38 14 88t-39 51q-20 0 -43 -15q-80 -39 -198 -235 q-12 -90 -58 -193q-39 -76 -98 -146q-182 -216 -373 -216h-12q-168 16 -232 80q-24 22 -36 22q-18 0 -33 -55q-115 -273 -133 -317t-19 -68q0 -27 39 -27h105q23 0 36 -12q13 -11 13 -29t-14 -32t-37 -15h-703q-25 1 -40 15t-15 31t15 29t40 13h152q47 0 63 31l430 1000 q16 26 16 82t-40 57q-20 0 -41 -15q-80 -39 -203 -235q-12 -100 -49 -193q-42 -87 -157 -211q-60 -67 -144 -109t-172 -42h-15q-145 14 -203 58t-63 44q-20 0 -35 -55q-115 -273 -133 -319t-18 -66q0 -27 41 -27h104q47 0 47 -41q0 -18 -13 -32t-38 -15h-702q-23 1 -37 15 q-32 33 -1 61q13 12 38 12h151q47 0 66 31l432 1000q12 30 12 84t-39 55q-18 0 -41 -15q-78 -35 -202 -235q-21 -161 -112 -286q-38 -52 -97 -117q-60 -64 -144 -108t-172 -44h-12q-150 14 -213 61q-49 41 -55 41q-18 0 -37 -55q-151 -370 -151 -391q-1 -21 40 -21h107 q45 0 45 -41q0 -47 -51 -47h-699q-25 1 -40 15t-15 31t15 29t40 13h152q49 0 61 31l432 1000q12 61 13 77q0 61 -37 62q-20 0 -43 -15q-47 -25 -109 -104q-61 -80 -100 -147l-39 -68q-16 -41 -47 -41q-10 0 -12 4q-25 10 -25 30q0 29 104 184q181 270 306 286l53 2 q123 0 182 -117q14 -19 17 -28q12 -29 23 -29t28 18q45 54 153 110t209 56q100 0 158 -78q61 -72 72 -178q162 225 276 244l55 2q129 0 183 -117l6 -10q23 -47 34 -47t29 18q45 54 153 110t207 56t156 -74t76 -182q168 227 275 244l53 2q129 0 182 -117q14 -19 17 -28 q11 -29 27 -29q10 0 24 18q46 54 154 110t208 56t160 -77t74 -179q164 225 272 244l55 2q129 0 183 -117l6 -10q23 -47 34 -47t29 18q45 54 153 110t207 56t158 -74t78 -182q164 225 273 244l55 2q123 0 182 -117q14 -19 17 -28q12 -29 23 -29t28 18q45 54 153 110t209 56 q100 0 158 -78q63 -76 74 -178q168 227 274 244l53 2q127 0 185 -117l6 -10q17 -47 31 -47z"/>
            <glyph glyph-name="uniE528" unicode="" horiz-adv-x="6004" d="M5288 240q0 -124 72 -125q55 0 132 82q76 83 144 229t68 257t-43 132q-10 2 -27 2q-55 0 -132 -82q-78 -83 -146 -227t-68 -268zM4461 817q-57 0 -133 -81q-76 -80 -144 -226t-68 -270t68 -125q55 0 132 82t138 209q74 164 74 276t-43 133q-8 2 -24 2zM2943 240 q0 -126 68 -125q57 0 134 82t132 209q78 166 78 277t-43 132q-10 2 -25 2q-57 0 -134 -81q-77 -82 -143 -226t-67 -270zM2183 683q0 111 -45 132q-6 2 -22 2q-56 0 -132 -81q-76 -80 -144 -226t-68 -260t43 -131q6 -4 24 -4q57 0 133 82q76 83 144 229t67 257zM594 236 q0 -122 72 -121q55 0 132 82q76 83 144 229t68 257t-43 132q-10 2 -27 2q-55 0 -132 -82q-78 -81 -146 -229t-68 -270zM5379 760q11 0 28 20q45 54 153 110t208 56t159 -78q78 -100 78 -244t-62 -262q-38 -86 -153 -211q-60 -65 -144 -108t-172 -43h-24q-139 12 -203 57 q-37 41 -55 41t-35 -51q-113 -274 -135 -338q-16 -33 -17 -47q0 -31 39 -31h109q45 0 45 -42t-51 -42h-701q-25 1 -39 13t-14 29t15 29t38 13h154q47 0 59 35l434 996q1 4 7 27t6 54q0 61 -37 62q-20 0 -43 -14q-84 -47 -201 -240q-14 -119 -53 -189q-44 -91 -131 -183 q-167 -179 -340 -179h-27q-137 12 -198 57q-44 41 -58 41t-35 -51q-115 -274 -137 -338q-14 -29 -14 -47q0 -31 41 -31h104q47 0 47 -41q0 -16 -13 -29t-38 -14h-702q-25 1 -38 13t-13 29t14 29t37 13h151q47 0 66 35l432 996q14 49 14 81q0 61 -39 62q-20 0 -43 -14 q-86 -47 -198 -240q-12 -98 -58 -190t-155 -210q-59 -65 -143 -108t-173 -43h-22q-141 12 -201 57q-45 41 -57 41q-18 0 -33 -51q-115 -275 -133 -319t-19 -66q0 -31 39 -31h105q23 0 36 -12q13 -13 13 -29t-14 -29t-37 -14h-703q-25 1 -40 13t-15 29t15 29t40 13h152 q49 0 63 35l430 996q16 38 16 90t-40 53q-20 0 -41 -14q-84 -47 -203 -240q-14 -109 -42 -169q-50 -111 -164 -231q-60 -65 -144 -108t-172 -43h-25q-137 12 -198 57q-45 41 -58 41q-20 0 -35 -51q-115 -274 -137 -338q-14 -29 -14 -47q0 -31 41 -31h104q47 0 47 -41 q0 -16 -13 -29t-38 -14h-702q-25 1 -38 13q-14 12 -14 29t14 29t38 13h151q49 0 66 35l432 996q12 42 12 92t-39 51q-18 0 -41 -14q-82 -43 -202 -240q-14 -115 -56 -189q-38 -86 -153 -211q-60 -65 -144 -108t-172 -43h-22q-141 12 -203 57q-41 41 -56 41t-36 -51 q-111 -274 -135 -338q-16 -33 -17 -47q0 -31 41 -31h107q45 0 45 -42t-51 -42h-699q-25 1 -40 13t-15 29t15 29t40 13h152q49 0 61 35l432 996q1 4 7 27t6 54q0 61 -37 62q-20 0 -43 -14q-46 -25 -108 -106t-101 -148l-39 -68q-16 -39 -47 -39q-10 0 -12 2q-25 8 -25 29 t22 57q159 258 248 332q88 74 138 80t55 6q122 0 188 -131q23 -45 34 -45t28 20q45 54 153 110t208 56q99 0 159 -78q61 -72 72 -182q166 231 276 244q49 6 55 6q127 0 183 -119q28 -57 39 -57q10 0 30 20q45 54 153 110t206 56t156 -73t77 -187q172 231 275 244q49 6 53 6 q127 0 182 -119l8 -12q18 -45 33 -45q10 0 27 20q46 54 154 110t207 56t159 -76t76 -184q168 231 272 244l55 6q127 0 183 -119q28 -57 39 -57q10 0 30 20q45 54 153 110t206 56t158 -73t79 -187q168 231 273 244l55 6q122 0 188 -131q23 -45 34 -45z"/>
            <glyph glyph-name="uniE529" unicode="" horiz-adv-x="4829" d="M4461 817q-57 0 -133 -81q-76 -80 -144 -226t-68 -270t68 -125q55 0 132 82t138 209q74 164 74 276t-43 133q-8 2 -24 2zM2943 240q0 -126 68 -125q57 0 134 82t132 209q78 166 78 277t-43 132q-10 2 -25 2q-57 0 -134 -81q-77 -82 -143 -226t-67 -270zM2183 683 q0 111 -45 132q-6 2 -22 2q-56 0 -132 -81q-76 -80 -144 -226t-68 -260t43 -131q6 -4 24 -4q57 0 133 82q76 83 144 229t67 257zM594 236q0 -122 72 -121q55 0 132 82q76 83 144 229t68 257t-43 132q-10 2 -27 2q-55 0 -132 -82q-78 -81 -146 -229t-68 -270zM4203 760 q10 0 30 20q45 54 153 110t206 56t163 -78q74 -94 74 -239t-51 -251t-137 -199q-167 -179 -340 -179h-27q-137 12 -198 57q-44 41 -58 41t-35 -51q-115 -274 -137 -338q-14 -29 -14 -47q0 -31 41 -31h104q47 0 47 -41q0 -16 -13 -29t-38 -14h-702q-25 1 -38 13t-13 29t14 29 t37 13h151q47 0 66 35l432 996q14 49 14 81q0 61 -39 62q-20 0 -43 -14q-86 -47 -198 -240q-12 -98 -58 -190t-155 -210q-59 -65 -143 -108t-173 -43h-22q-141 12 -201 57q-45 41 -57 41q-18 0 -33 -51q-115 -275 -133 -319t-19 -66q0 -31 39 -31h105q23 0 36 -12 q13 -13 13 -29t-14 -29t-37 -14h-703q-25 1 -40 13t-15 29t15 29t40 13h152q49 0 63 35l430 996q16 38 16 90t-40 53q-20 0 -41 -14q-84 -47 -203 -240q-14 -109 -42 -169q-50 -111 -164 -231q-60 -65 -144 -108t-172 -43h-25q-137 12 -198 57q-45 41 -58 41q-20 0 -35 -51 q-115 -274 -137 -338q-14 -29 -14 -47q0 -31 41 -31h104q47 0 47 -41q0 -16 -13 -29t-38 -14h-702q-25 1 -38 13q-14 12 -14 29t14 29t38 13h151q49 0 66 35l432 996q12 42 12 92t-39 51q-18 0 -41 -14q-82 -43 -202 -240q-14 -115 -56 -189q-38 -86 -153 -211 q-60 -65 -144 -108t-172 -43h-22q-141 12 -203 57q-41 41 -56 41t-36 -51q-111 -274 -135 -338q-16 -33 -17 -47q0 -31 41 -31h107q45 0 45 -42t-51 -42h-699q-25 1 -40 13t-15 29t15 29t40 13h152q49 0 61 35l432 996q1 4 7 27t6 54q0 61 -37 62q-20 0 -43 -14 q-46 -25 -108 -106t-101 -148l-39 -68q-16 -39 -47 -39q-10 0 -12 2q-25 8 -25 29t22 57q159 258 248 332q88 74 138 80t55 6q122 0 188 -131q23 -45 34 -45t28 20q45 54 153 110t208 56q99 0 159 -78q61 -72 72 -182q166 231 276 244q49 6 55 6q127 0 183 -119 q28 -57 39 -57q10 0 30 20q45 54 153 110t206 56t156 -73t77 -187q172 231 275 244q49 6 53 6q127 0 182 -119l8 -12q18 -45 33 -45q10 0 27 20q46 54 154 110t207 56t159 -76t76 -184q168 231 272 244l55 6q127 0 183 -119q29 -57 39 -57z"/>
            <glyph glyph-name="uniE52A" unicode="" horiz-adv-x="3655" d="M3355 702q0 108 -43 134q-10 2 -25 2q-55 0 -132 -83t-138 -210q-74 -165 -74 -277t45 -133q6 -4 23 -4q57 0 134 82q77 81 143 231t67 258zM2183 702q0 108 -45 134q-6 2 -22 2q-55 0 -131 -83t-145 -229q-68 -146 -68 -258t43 -133q6 -4 24 -4q57 0 133 82 q76 81 144 231t67 258zM1010 702q0 108 -43 134q-10 2 -27 2q-55 0 -131 -83t-137 -210q-78 -173 -78 -279t47 -131q8 -4 25 -4q55 0 132 82q76 81 144 231t68 258zM3033 776q8 0 25 21q46 53 154 109t208 56t162 -77q74 -103 74 -247t-50 -241q-90 -172 -218 -276 q-128 -105 -263 -105h-12q-150 14 -211 62q-8 6 -27 23t-30 18q-18 0 -33 -56q-115 -272 -133 -317t-19 -68q0 -27 39 -26h105q23 0 36 -12t13 -30t-14 -32t-37 -14h-703q-25 0 -40 14t-15 32t15 30t40 12h152q47 0 63 31l430 999q16 27 16 83t-40 56q-20 0 -41 -14 q-76 -37 -203 -236q-12 -100 -49 -192q-42 -87 -157 -211q-60 -66 -144 -109t-172 -43h-15q-145 14 -203 58t-63 45q-20 0 -35 -56q-115 -272 -133 -320t-18 -65q0 -27 41 -26h104q47 0 47 -41q0 -19 -13 -33t-38 -14h-702q-23 0 -37 14q-15 14 -15 32t14 30t38 12h151 q47 0 66 31l432 999q12 31 12 85t-39 54q-18 0 -41 -14q-74 -33 -202 -236q-21 -160 -112 -285q-38 -52 -97 -117q-60 -65 -144 -109t-172 -44h-12q-150 14 -206 58t-62 45q-18 0 -37 -56q-151 -370 -151 -391q-1 -21 40 -20h107q45 0 45 -41q0 -47 -51 -47h-699 q-25 0 -40 14t-15 32t15 30t40 12h152q49 0 61 31l432 999q12 61 13 78q0 61 -37 61q-20 0 -43 -14q-46 -25 -108 -105t-101 -147l-39 -68q-16 -41 -47 -41q-10 0 -12 3q-25 15 -25 33q0 27 103 181q182 272 307 287l53 2q123 0 182 -116l10 -15l16 -33q9 -12 17 -12t25 21 q45 55 153 110t209 55q100 0 158 -77q61 -72 72 -178q162 225 276 243l55 2q129 0 183 -116l6 -11q23 -49 33 -49t30 21q45 53 153 109t207 56t156 -73q57 -74 76 -182q168 227 275 243l53 2q129 0 182 -116l10 -15l16 -33q9 -12 17 -12z"/>
            <glyph glyph-name="uniE52B" unicode="" horiz-adv-x="2484" d="M1839 111q57 -1 133 81t144 232t67 256q0 108 -45 135q-6 2 -22 2q-55 0 -131 -83q-76 -84 -145 -230q-68 -146 -68 -258t43 -131q6 -4 24 -4zM666 111q55 -1 132 81q76 82 144 232t68 256q0 108 -43 135q-10 2 -27 2q-55 0 -131 -83t-137 -210q-78 -172 -78 -278 t47 -131q8 -4 25 -4zM1859 758q11 0 29 18q45 54 153 110t207 56q100 0 168 -88t68 -226t-57 -270q-42 -87 -157 -211q-60 -67 -144 -109t-172 -42h-15q-145 14 -203 58t-63 44q-20 0 -35 -55q-115 -273 -133 -319t-18 -66q0 -27 41 -27h104q47 0 47 -41q0 -18 -13 -32 t-38 -15h-702q-23 1 -37 15q-32 33 -1 61q13 12 38 12h151q47 0 66 31l432 1000q12 30 12 84t-39 55q-18 0 -41 -15q-78 -35 -202 -235q-21 -161 -112 -286q-38 -52 -97 -117q-60 -64 -144 -108t-172 -44h-12q-150 14 -213 61q-49 41 -55 41q-18 0 -37 -55 q-151 -370 -151 -391q-1 -21 40 -21h107q45 0 45 -41q0 -47 -51 -47h-699q-25 1 -40 15t-15 31t15 29t40 13h152q49 0 61 31l432 1000q12 61 13 77q0 61 -37 62q-20 0 -43 -15q-47 -25 -109 -104q-61 -80 -100 -147l-39 -68q-16 -41 -47 -41q-10 0 -12 4q-25 10 -25 30 q0 29 104 184q181 270 306 286l53 2q123 0 182 -117q14 -19 17 -28q12 -29 23 -29t28 18q45 54 153 110t209 56q100 0 158 -78q61 -72 72 -178q162 225 276 244l55 2q129 0 183 -117l6 -10q23 -47 34 -47z"/>
            <glyph glyph-name="uniE52C" unicode="" horiz-adv-x="2686" d="M2386 674q0 114 -45 133q-6 4 -23 4q-55 0 -131 -82q-77 -81 -145 -229t-68 -258t43 -133q6 -4 25 -5q55 0 132 84t134 211q78 161 78 275zM1087 -37q-57 0 -108 27q-74 39 -74 110q0 35 21 88l41 113q14 47 44 132t36 105t14 42l12 34q4 12 4 27q0 51 -49 51 q-31 0 -44 -9t-34 -44q-35 -68 -136 -320q-101 -251 -113 -275q-13 -24 -25 -34t-35 -10h-168q-31 0 -31 25q0 12 22 62q22 49 115 283t93 255q0 61 -49 61q-51 0 -69 -34q-3 -6 -9 -14q-6 -9 -8 -13q-162 -309 -162 -340q-41 -102 -76 -167t-49 -92t-53 -26h-134 q-53 0 -53 20q0 14 36 87t115 262q79 188 99 249q31 72 31 132t-37 61q-43 0 -150 -129q-28 -32 -74 -104t-70 -106t-39 -34t-19 4q-20 12 -21 31t37 76q37 56 45 69q41 76 125 168l12 19q94 117 211 117q47 0 83 -20t52 -43q41 -62 60 -62q10 -1 46 31q107 94 202 94 q47 0 83 -18t51 -41q40 -58 52 -58t43 30q90 87 172 87t139 -43q58 -43 58 -129t-56 -250q-56 -166 -104 -281l-10 -22q-8 -27 -8 -53t18 -25q92 41 257 401q62 135 150 257t173 145q23 10 67 10q123 0 182 -125l7 -10q20 -43 34 -43t29 20q45 54 153 108t208 54t168 -88 t67 -230q0 -207 -116 -358q-38 -51 -98 -116q-60 -66 -144 -108t-172 -42h-15q-133 0 -209 57q-49 41 -57 41q-20 0 -35 -55q-115 -273 -133 -321t-18 -64q0 -27 41 -27h104q47 0 47 -41q0 -18 -13 -32t-38 -15h-703q-22 0 -36 13t-15 30q0 45 51 45h152q47 0 66 33l432 997 q2 6 16 37t14 58q0 37 -41 36l-30 -2q-25 -6 -70 -94t-103 -207t-128 -237t-162 -201q-92 -82 -187 -82z"/>
            <glyph glyph-name="uniE52D" unicode="" horiz-adv-x="2697" d="M2507 1028q-125 0 -125 125q0 55 31 94q29 43 63 62q29 6 39 14t10 43q-4 18 -31 18h-14q-148 -4 -217 -105q-37 -54 -56 -95t-50 -124t-31 -111t20 -33t84 -5h115q47 0 54 -9t7 -62q0 -52 -8 -64t-57 -12h-137q-86 0 -106 -10t-42 -49q-20 -39 -90 -222l-70 -196 q-70 -193 -98 -256l-14 -27q-80 -184 -121 -248q-121 -186 -254 -272q-143 -96 -276 -96q-49 0 -113 18q-135 60 -135 209q0 86 55 152q31 37 84 55q30 6 56 6t69 -25q63 -33 63 -135q0 -49 -36 -94q-34 -34 -89 -47q35 -10 68 -10t78 41q98 80 149 209q14 37 118 417 t127 467q24 86 11 99q-12 14 -53 14h-115q-45 0 -53 9t-8 63t14 64q14 11 78 11h158q57 1 75 13t40 69q74 172 213 318q182 182 436 182h20q123 -4 189 -69t65 -167q-6 -89 -69 -159t-121 -70zM301 922q47 0 83 -20t52 -43q41 -62 62 -62q8 -1 44 31q107 94 201 94 q47 0 83 -18t52 -41q41 -58 52 -58q12 0 43 30q90 87 172 87t139 -43t57 -129t-55 -250q-55 -166 -104 -281l-8 -22q-14 -37 -14 -57t26 -31q41 0 104 94q33 37 92 131q20 33 52 41q23 0 22 -27q0 -51 -132 -225q-50 -66 -118 -113t-127 -47t-110 27q-74 39 -74 110 q0 35 20 88l41 113q14 47 44 132t36 105t15 42l12 34q4 12 4 27q0 51 -49 51q-31 0 -44 -9t-34 -44q-35 -68 -136 -320t-120 -285t-51 -34h-170q-31 0 -31 25q0 12 22 62q22 49 114 283q93 234 94 255q0 61 -50 61t-68 -34q-9 -15 -18 -27q-45 -85 -131 -277 q-85 -192 -113 -244t-40 -74t-26 -26t-30 -4h-133q-53 0 -53 20q0 14 11 38t48 106q37 84 97 217t94 237q31 72 31 132t-37 61q-43 0 -150 -129q-27 -32 -74 -104q-46 -72 -70 -106t-39 -34q-40 0 -40 35q0 27 82 145q41 76 125 168l14 19q90 117 209 117z"/>
            <glyph glyph-name="uniE52E" unicode="" horiz-adv-x="2609" d="M2419 1071q-125 0 -125 125q0 53 30 94q32 55 76 66q20 4 28 12t9 41q-4 20 -31 21h-14q-145 -8 -216 -107q-38 -53 -57 -95t-51 -126t-30 -104q0 -20 5 -28q10 -14 99 -14h115q45 0 53 -9t8 -64t-8 -65t-55 -11h-154q-65 0 -89 -12t-52 -72q-25 -43 -82 -197l-70 -194 q-61 -172 -98 -258l-14 -27q-82 -186 -121 -246q-119 -186 -257 -277t-274 -91q-57 0 -112 16q-41 18 -74 51q-61 62 -61 154t55 158q53 59 125 59q43 0 84 -23q63 -35 63 -135q0 -53 -37 -94q-51 -41 -88 -49q37 -8 57 -8t36 6t53 33q98 84 149 211q30 88 146 515 q114 427 114 445t-8 26t-49 9h-74q-47 0 -54 10q-7 11 -7 63t14 64t76 12h119q57 0 75 12t40 70q74 172 212 318q182 182 437 182h20q125 -6 190 -71t64 -167q-6 -88 -69 -158t-121 -71zM940 821q-55 0 -131 -82t-137 -209q-78 -176 -78 -280t47 -131q8 -4 25 -4 q55 0 132 84t134 211q78 162 78 276t-43 131q-10 4 -27 4zM463 936q123 0 182 -119l6 -10q21 -43 35 -43t27 20q45 54 153 108t210 54q101 0 157 -78q78 -100 78 -241q0 -192 -118 -357q-191 -266 -413 -266h-12q-137 0 -213 57q-43 39 -55 39q-18 0 -37 -53 q-151 -373 -152 -385q0 -27 41 -27h107q45 0 45 -41q0 -47 -51 -47h-699q-25 -1 -40 13t-15 31t15 31t40 13h152q49 0 61 33l432 998q12 61 13 77q0 61 -37 62q-27 0 -43 -10q-46 -27 -108 -109t-101 -149l-39 -68q-16 -39 -47 -39q-10 0 -12 2q-25 14 -25 34q0 29 104 180 q184 269 306 286q16 4 53 4z"/>
            <glyph glyph-name="uniE52F" unicode="" horiz-adv-x="2267" d="M1142 1071q-124 0 -124 117q0 61 29 102q25 44 63 60t43 21q6 5 6 38q-4 20 -31 21h-14q-145 -8 -216 -107q-38 -53 -57 -95t-50 -126t-31 -113q0 -37 108 -37l363 4q57 0 75 12t40 70q70 172 213 318q182 182 434 182h20q125 -6 190 -71t63 -160t-66 -165 q-62 -70 -122 -71q-124 0 -124 117q0 61 31 102q20 40 59 58t45 23t6 38q-6 20 -31 21h-12q-147 -8 -218 -107q-38 -53 -57 -95t-51 -126t-30 -104q0 -20 5 -28q10 -14 99 -14h117q45 0 52 -9t7 -64t-8 -65t-55 -11h-139q-86 0 -106 -10q-45 -23 -130 -271l-72 -194 q-61 -172 -98 -258l-12 -27q-92 -199 -123 -246q-115 -186 -254 -274q-141 -94 -277 -94q-57 0 -110 16q-135 57 -135 209q0 88 53 154q52 59 125 59q43 0 84 -23q66 -35 65 -135q0 -53 -36 -94q-51 -41 -89 -49q27 -8 51 -8t38 5t57 34q98 86 147 211q30 88 146 515 q114 427 114 445t-8 26q-8 9 -49 9h-317q-86 0 -106 -10q-45 -23 -130 -271l-72 -194q-61 -172 -98 -258l-12 -27q-92 -199 -123 -246q-115 -186 -254 -274q-141 -94 -276 -94q-57 0 -111 16q-135 57 -135 209q0 88 53 154q52 59 125 59q43 0 84 -23q66 -35 65 -135 q0 -53 -36 -94q-51 -41 -88 -49q24 -8 49 -8t39 5t57 34q98 86 147 211q30 88 146 515q114 427 114 445t-8 26t-49 9h-115q-47 0 -54 10q-7 11 -7 63t15 64t77 12h160q57 0 75 12t40 70q70 172 213 318q182 182 434 182h20q125 -6 190 -71t63 -160t-66 -165 q-62 -70 -122 -71z"/>
            <glyph glyph-name="uniE530" unicode="" horiz-adv-x="3190" d="M1142 1071q-124 0 -124 117q0 61 29 102q25 44 63 60t43 21q6 5 6 38q-4 20 -31 21h-14q-145 -8 -216 -107q-38 -53 -57 -95t-50 -126t-31 -104t5 -28q10 -14 99 -14h353q57 0 74 12t40 70q74 172 213 318q182 182 436 182h21q123 -6 189 -71t65 -167q-5 -88 -69 -158 t-122 -71q-125 0 -125 125q0 53 31 94q25 44 62 60t43 21t6 38q-2 20 -29 21h-14q-165 -6 -242 -143q-36 -63 -75 -166q-38 -103 -38 -123q-1 -20 5 -28q11 -14 100 -14h364q56 0 74 12t41 70q74 172 213 318q182 182 436 182h21q123 -6 189 -71t65 -167q-5 -88 -69 -158 t-122 -71q-125 0 -125 125q0 53 31 94q25 44 62 60q36 16 42 21t7 38q-2 20 -29 21h-14q-165 -6 -242 -143q-36 -63 -75 -166q-38 -103 -38 -123q-1 -20 5 -28q11 -14 100 -14h115q45 0 53 -9t8 -64t-8 -65t-58 -11h-137q-86 0 -105 -10t-55 -74q-16 -33 -77 -197l-70 -194 q-61 -172 -98 -258l-15 -27q-78 -178 -120 -246q-119 -186 -259 -277t-272 -91q-57 0 -113 16q-41 18 -73 51q-62 62 -62 154t56 158q29 35 84 53q14 6 47 6t87 -30t54 -128q0 -53 -37 -94q-51 -41 -88 -49q32 -8 53 -8t38 6t54 33q100 88 150 211q12 34 116 414t124 454 t20 92t-8 26q-8 9 -49 9h-318q-86 0 -106 -10q-21 -11 -45 -59t-86 -212l-72 -194q-51 -152 -96 -258l-15 -27q-78 -178 -120 -246q-119 -186 -259 -277t-272 -91q-57 0 -112 16q-41 18 -74 51q-62 62 -62 154t56 158q49 59 132 59q32 0 77 -23q63 -37 63 -135 q0 -53 -37 -94q-51 -41 -88 -49q24 -8 49 -8t42 6t55 33q100 88 149 211q12 34 116 414t124 454t20 92t-8 26t-49 9h-305q-86 0 -106 -10q-45 -23 -130 -271l-72 -194q-61 -172 -98 -258l-12 -27q-92 -199 -123 -246q-115 -186 -254 -274q-141 -94 -276 -94q-57 0 -111 16 q-135 57 -135 209q0 88 53 154q52 59 125 59q43 0 84 -23q66 -35 65 -135q0 -53 -36 -94q-51 -41 -88 -49q24 -8 49 -8t39 5t57 34q98 86 147 211q30 88 146 515q114 427 114 445t-8 26t-49 9h-115q-47 0 -54 10q-7 11 -7 63t15 64t77 12h160q57 0 75 12t40 70 q70 172 213 318q182 182 434 182h20q125 -6 190 -71t63 -160t-66 -165q-62 -70 -122 -71z"/>
            <glyph glyph-name="uniE531" unicode="" horiz-adv-x="4112" d="M1142 1071q-124 0 -124 117q0 61 29 102q25 44 63 60t43 21q6 5 6 38q-4 20 -31 21h-14q-145 -8 -216 -107q-38 -53 -57 -95t-50 -126t-31 -104t5 -28q10 -14 99 -14h359q57 0 75 12t39 70q74 172 213 318q182 182 437 182h20q125 -6 189 -71t65 -167q-4 -88 -69 -158 t-121 -71q-127 0 -125 125q0 53 30 94q25 44 63 60t44 21t6 38q-4 20 -31 21h-14q-145 -8 -216 -107q-38 -53 -58 -95t-50 -126q-31 -84 -30 -113q0 -33 94 -33h362q56 0 74 12t50 90q68 162 204 298q182 182 436 182h21q123 -6 187 -71t65 -167q-3 -88 -67 -158t-122 -71 q-125 0 -125 125q0 53 31 94q20 40 59 58t45 23t7 38q-4 20 -31 21h-12q-164 -6 -243 -144q-33 -56 -73 -162q-41 -106 -41 -137t96 -31h367q58 0 76 12t41 70q70 172 213 318q182 182 434 182h20q125 -6 190 -71q64 -65 62 -160t-65 -165t-123 -71q-124 0 -123 117 q0 61 29 102q24 44 62 60t44 21t6 38q-4 20 -30 21h-15q-145 -8 -216 -107q-38 -53 -57 -95t-50 -126t-31 -104t5 -28q10 -14 99 -14h115q45 0 53 -9q9 -9 9 -64t-8 -65t-56 -11h-139q-85 0 -105 -10q-45 -23 -131 -271l-71 -194q-61 -172 -99 -258l-12 -27 q-92 -199 -123 -246q-121 -190 -254 -274q-141 -94 -276 -94q-57 0 -111 16q-135 57 -135 209q0 88 53 154q53 59 125 59q43 0 84 -23q66 -35 66 -135q0 -49 -37 -94q-51 -41 -88 -49q24 -8 49 -8t39 5t57 34q98 86 148 211q26 74 143 508t117 452t-8 26t-50 9h-311 q-86 0 -105 -10q-47 -25 -130 -271l-72 -194q-70 -195 -98 -258l-13 -27q-78 -178 -123 -246q-115 -186 -256 -277t-274 -91q-57 0 -111 16q-45 18 -73 51q-62 62 -62 154t53 158q33 35 86 53q12 6 46 6t79 -23q63 -37 64 -135q0 -53 -37 -94q-51 -41 -88 -49q24 -8 49 -8 t42 6t54 33q102 90 148 211q14 39 121 431t123 448t16 84t-24 31q-9 1 -33 1h-304q-86 0 -105 -10t-54 -74q-20 -45 -78 -197l-70 -194q-61 -172 -98 -258l-14 -27q-82 -186 -121 -246q-119 -186 -257 -277t-274 -91q-57 0 -112 16q-41 18 -74 51q-61 62 -61 154t55 158 q53 59 125 59q43 0 84 -23q63 -35 63 -135q0 -53 -37 -94q-51 -41 -88 -49q32 -8 54 -8t38 6t54 33q98 84 149 211q30 88 146 515q114 427 114 445t-8 26q-8 9 -49 9h-311q-86 0 -106 -10q-45 -23 -130 -271l-72 -194q-61 -172 -98 -258l-12 -27q-92 -199 -123 -246 q-115 -186 -254 -274q-141 -94 -276 -94q-57 0 -111 16q-135 57 -135 209q0 88 53 154q52 59 125 59q43 0 84 -23q66 -35 65 -135q0 -53 -36 -94q-51 -41 -88 -49q24 -8 49 -8t39 5t57 34q98 86 147 211q30 88 146 515q114 427 114 445t-8 26t-49 9h-115q-47 0 -54 10 q-7 11 -7 63t15 64t77 12h160q57 0 75 12t40 70q70 172 213 318q182 182 434 182h20q125 -6 190 -71t63 -160t-66 -165q-62 -70 -122 -71z"/>
            <glyph glyph-name="uniE532" unicode="" horiz-adv-x="5027" d="M1142 1071q-124 0 -124 117q0 61 29 102q25 44 63 60t43 21q6 5 6 38q-4 20 -31 21h-14q-145 -8 -216 -107q-38 -53 -57 -95t-50 -126t-31 -115t94 -31h369q57 0 75 12t39 70q74 172 213 318q182 182 437 182h20q125 -6 189 -71t65 -167q-4 -88 -69 -158t-121 -71 q-127 0 -125 125q0 53 30 94q25 44 63 60t44 21t6 38q-4 20 -31 21h-14q-145 -8 -216 -107q-38 -53 -58 -95t-50 -126q-31 -84 -30 -113q0 -33 94 -33h364q58 0 76 12t39 70q74 172 213 318q186 182 436 182h21q125 -6 189 -71t65 -167q-3 -88 -67 -158t-122 -71 q-127 0 -127 125q0 53 31 94q25 44 63 60q37 16 43 21t7 38q-4 20 -31 21h-14q-145 -8 -216 -107q-38 -53 -58 -95t-50 -126q-31 -84 -31 -115t95 -31h356q56 0 74 12t41 70q70 172 213 318q182 182 434 182h20q125 -6 190 -71q64 -65 62 -160t-65 -165t-123 -71 q-124 0 -123 117q0 61 28 102q25 44 63 60t44 21t6 38q-6 20 -31 21h-14q-145 -8 -216 -107q-38 -53 -57 -95q-18 -42 -50 -126t-31 -113q0 -33 94 -33h367q57 0 74 12t40 70q70 172 213 318q182 182 436 182h19q126 -6 190 -71t64 -167q-4 -88 -68 -158t-122 -71 q-124 0 -124 117q0 61 31 102q19 40 59 58t46 23t6 38q-6 20 -31 21h-12q-164 -6 -243 -144q-33 -56 -73 -162q-41 -106 -41 -126t6 -28q11 -14 99 -14h117q45 0 52 -9t7 -64t-8 -65t-55 -11h-140q-86 0 -105 -10q-45 -24 -130 -271l-72 -194q-61 -172 -98 -258l-13 -27 q-78 -178 -122 -246q-115 -186 -256 -277t-275 -91q-57 0 -110 16q-134 56 -136 209q0 88 54 154q52 59 125 59q43 0 84 -23q66 -35 65 -135q0 -53 -37 -94q-51 -41 -88 -49q24 -8 49 -8t39 5t58 34q98 86 147 211q27 78 144 508q116 430 116 450t-8 29t-49 8h-307 q-85 0 -105 -10q-45 -23 -131 -271l-72 -194q-61 -172 -98 -258l-12 -27q-92 -199 -123 -246q-115 -186 -254 -274q-141 -94 -277 -94q-57 0 -110 16q-135 57 -135 209q0 88 53 154q53 59 125 59q43 0 84 -23q66 -35 65 -135q0 -49 -36 -94q-51 -41 -89 -49q28 -8 52 -8 t37 5q14 5 57 34q98 86 147 211q30 88 146 515q115 427 115 445t-9 26q-8 9 -49 9h-297q-86 0 -105 -10t-55 -74q-31 -68 -75 -197l-72 -194q-61 -172 -98 -258l-15 -27q-82 -186 -121 -246q-119 -186 -257 -277t-273 -91q-57 0 -111 16q-43 18 -75 51q-60 60 -60 154 t53 156t125 61q43 0 84 -23q66 -35 66 -135q0 -51 -39 -94q-53 -41 -86 -49q24 -8 49 -8t41 6t53 33q98 84 150 211q12 34 116 414q144 521 144 550q0 28 -24 30q-9 1 -33 1h-308q-86 0 -105 -10t-54 -74q-20 -45 -78 -197l-70 -194q-61 -172 -98 -258l-14 -27 q-82 -186 -121 -246q-119 -186 -257 -277t-274 -91q-57 0 -112 16q-41 18 -74 51q-61 62 -61 154t55 158q53 59 125 59q43 0 84 -23q63 -35 63 -135q0 -53 -37 -94q-51 -41 -88 -49q32 -8 54 -8t38 6t54 33q98 84 149 211q30 88 146 515q114 427 114 445t-8 26q-8 9 -49 9 h-311q-86 0 -106 -10q-45 -23 -130 -271l-72 -194q-61 -172 -98 -258l-12 -27q-92 -199 -123 -246q-115 -186 -254 -274q-141 -94 -276 -94q-57 0 -111 16q-135 57 -135 209q0 88 53 154q52 59 125 59q43 0 84 -23q66 -35 65 -135q0 -53 -36 -94q-51 -41 -88 -49 q24 -8 49 -8t39 5t57 34q98 86 147 211q30 88 146 515q114 427 114 445t-8 26t-49 9h-115q-47 0 -54 10q-7 11 -7 63t15 64t77 12h160q57 0 75 12t40 70q70 172 213 318q182 182 434 182h20q125 -6 190 -71t63 -160t-66 -165q-62 -70 -122 -71z"/>
            <glyph glyph-name="uniE533" unicode="" horiz-adv-x="5922" d="M3902 1071q-124 0 -124 117q0 61 31 102q19 40 59 58t46 23t6 38q-4 20 -31 21h-12q-147 -8 -218 -107q-37 -53 -57 -95t-51 -126t-30 -113q0 -33 94 -33h352q57 0 75 12t40 70q74 172 213 318q182 182 436 182h20q123 -6 189 -71t65 -167q-6 -88 -69 -158t-121 -71 q-125 0 -125 125q0 53 31 94q25 41 63 62q37 14 42 19t5 38q-2 20 -28 21h-15q-164 -6 -241 -143q-36 -63 -75 -166q-38 -103 -38 -134t94 -31h359q57 0 74 12t49 90q68 162 204 298q182 182 436 182h21q123 -6 187 -71t65 -167q-3 -88 -67 -158t-122 -71q-125 0 -125 125 q0 53 31 94q20 40 60 58t45 23q6 5 6 38q-2 20 -31 21h-12q-164 -6 -243 -144q-33 -56 -83 -184q-29 -86 -29 -106q1 -20 5 -26q9 -14 100 -14h115q47 0 54 -9t7 -64t-8 -65t-57 -11h-138q-88 0 -107 -10q-20 -11 -44 -59t-86 -212l-72 -194q-49 -152 -96 -258l-15 -27 q-78 -178 -120 -246q-119 -186 -259 -277t-274 -91q-55 0 -110 16q-39 16 -74 51q-62 62 -62 154t54 158q56 59 125 59q41 0 86 -23q63 -37 63 -135q0 -53 -37 -94q-51 -41 -88 -49q24 -8 49 -8t42 6t55 33q100 88 149 211q10 31 120 429q110 397 125 455t15 76t-8 26t-49 9 h-301q-86 0 -106 -10q-20 -11 -44 -59q-26 -48 -88 -212l-69 -194q-61 -172 -99 -258l-14 -27q-78 -178 -121 -246q-119 -186 -259 -277t-271 -91q-57 0 -113 16q-41 18 -74 51q-61 62 -61 154t55 158q53 59 125 59q39 0 84 -23q63 -37 64 -135q0 -53 -37 -94 q-51 -41 -88 -49q32 -8 54 -8t38 6t53 33q98 84 149 211q30 88 146 515q115 427 115 445q-1 18 -9 26t-49 9h-295q-86 0 -105 -10q-45 -24 -130 -271l-72 -194q-61 -172 -98 -258l-12 -27q-92 -199 -123 -246q-115 -186 -254 -274q-141 -94 -277 -94q-57 0 -110 16 q-134 56 -136 209q0 88 54 154q52 59 125 59q43 0 84 -23q66 -35 65 -135q0 -53 -37 -94q-51 -41 -88 -49q24 -8 49 -8t39 5t58 34q98 86 147 211q13 34 117 414t124 454t19 92q0 18 -8 26t-49 9h-301q-85 0 -105 -10q-45 -23 -131 -271l-71 -194q-70 -195 -99 -258l-12 -27 q-78 -178 -123 -246q-115 -186 -256 -277t-274 -91q-57 0 -111 16q-39 16 -74 51q-61 62 -61 154t53 158q33 35 86 53q14 6 47 6t78 -23q63 -37 64 -135q0 -53 -37 -94q-51 -41 -88 -49q32 -8 53 -8t38 6t54 33q102 90 148 211q14 39 121 431q109 391 125 451t16 85t-25 27 q-10 1 -35 1h-307q-86 0 -105 -10q-47 -25 -130 -271l-72 -194q-61 -172 -98 -258l-13 -27q-78 -178 -123 -246q-116 -186 -256 -277t-274 -91q-57 0 -111 16q-45 18 -73 51q-62 62 -62 154t53 158q52 59 125 59q41 0 86 -23q63 -37 64 -135q0 -53 -37 -94q-51 -41 -88 -49 q24 -8 49 -8t42 6t54 33q102 90 148 211q14 39 137 488q123 448 123 476t-24 30q-9 1 -33 1h-297q-86 0 -106 -10q-45 -23 -130 -271l-72 -194q-61 -172 -98 -258l-12 -27q-92 -199 -123 -246q-115 -186 -254 -274q-141 -94 -276 -94q-57 0 -111 16q-135 57 -135 209 q0 88 53 154q52 59 125 59q43 0 84 -23q66 -35 65 -135q0 -53 -36 -94q-51 -41 -88 -49q24 -8 49 -8t39 5t57 34q98 86 147 211q30 88 146 515q114 427 114 445t-8 26t-49 9h-115q-47 0 -54 10q-7 11 -7 63t15 64t77 12h160q57 0 75 12t40 70q70 172 213 318 q182 182 434 182h20q125 -6 190 -71t63 -160t-66 -165q-62 -70 -122 -71q-124 0 -124 117q0 61 29 102q25 44 63 60t43 21q6 5 6 38q-4 20 -31 21h-14q-145 -8 -216 -107q-38 -53 -57 -95t-50 -126t-31 -115t94 -31h356q56 0 74 12t50 90q68 162 204 298q182 182 436 182h19 q125 -6 189 -71t65 -167q-3 -88 -67 -158t-122 -71q-125 0 -125 125q0 53 31 94q20 40 60 58t44 23q6 5 7 38q-6 20 -31 21h-12q-164 -6 -243 -144q-33 -56 -73 -162q-41 -106 -41 -137t97 -31h364q56 0 74 12t50 90q68 162 204 298q182 182 436 182h20q123 -6 188 -71 q64 -65 62 -160t-65 -165t-121 -71q-125 0 -125 125q0 53 31 94q20 40 59 58t45 23t6 38q-2 20 -30 21h-13q-163 -6 -242 -144q-33 -56 -73 -162q-41 -106 -41 -137t96 -31h359q57 0 74 12t40 70q70 172 213 318q182 182 434 182h21q126 -6 190 -71t64 -167q-4 -88 -68 -158 q-62 -70 -122 -71z"/>
            <glyph glyph-name="uniE534" unicode="" horiz-adv-x="2234" d="M1862 821q-55 0 -131 -82q-76 -81 -145 -229q-68 -148 -68 -258t47 -133q6 -4 22 -4q55 0 133 84t135 211q78 162 78 276t-45 131q-10 4 -26 4zM1384 936q125 0 185 -119l6 -10q17 -43 33 -43t28 20q43 54 152 108q110 54 212 54t157 -78q77 -100 77 -236 q-1 -200 -118 -362q-193 -266 -412 -266h-14q-137 0 -213 57q-43 39 -54 39q-20 0 -39 -53q-151 -373 -151 -392q0 -20 41 -20h108q43 0 43 -41q0 -47 -49 -47h-700q-25 -1 -39 13t-14 30q0 45 53 45h151q49 0 62 33l432 998q14 34 14 86t-33 52t-49 -9q-47 -27 -108 -109 t-101 -149l-36 -68q-18 -39 -47 -39q-10 0 -15 2q-40 23 -12 72l6 6q57 100 136 205q151 202 255 217q16 4 53 4zM1142 1071q-124 0 -124 117q0 61 29 102q25 44 63 60t43 21q6 5 6 38q-4 20 -31 21h-14q-145 -8 -216 -107q-38 -53 -57 -95t-50 -126t-31 -104t5 -28 q10 -14 99 -14h115q47 0 54 -9t7 -64t-8 -65t-55 -11h-139q-86 0 -106 -10q-45 -23 -130 -271l-72 -194q-61 -172 -98 -258l-12 -27q-92 -199 -123 -246q-115 -186 -254 -274q-141 -94 -276 -94q-57 0 -111 16q-135 57 -135 209q0 88 53 154q52 59 125 59q43 0 84 -23 q66 -35 65 -135q0 -53 -36 -94q-51 -41 -88 -49q24 -8 49 -8t39 5t57 34q98 86 147 211q30 88 146 515q114 427 114 445t-8 26t-49 9h-115q-47 0 -54 10q-7 11 -7 63t15 64t77 12h160q57 0 75 12t40 70q70 172 213 318q182 182 434 182h20q125 -6 190 -71t63 -160t-66 -165 q-62 -70 -122 -71z"/>
            <glyph glyph-name="uniE535" unicode="" horiz-adv-x="1824" d="M1554 223q0 32 -17 42q-41 22 -67 22q-55 8 -55 75q0 35 35 58q22 22 63 22q84 -6 115 -61q27 -41 27 -105q0 -108 -84 -200t-234 -92q-51 0 -147 45t-121 45t-70 -39t-69 -39t-34 5t-12 11q-1 6 -1 19v16q0 25 28 51l613 619q0 33 -129 33h-125q-33 0 -99 -100t-90 -103 q-35 0 -34 35l4 32q-1 18 21 80t38 92q16 32 24 70q15 67 48 70h18q2 0 125 -16t167 -17q44 0 130 27q86 26 123 26t59 -26t21 -51q0 -24 -43 -54l-512 -483q-14 -8 -32 -36t-17 -44q0 -16 28 -16q18 4 65 4t104 -35t65 -37l28 -2q43 0 43 57zM1142 1071q-124 0 -124 117 q0 61 29 102q25 44 63 60t43 21q6 5 6 38q-4 20 -31 21h-14q-145 -8 -216 -107q-38 -53 -57 -95t-50 -126t-31 -104t5 -28q10 -14 99 -14h115q47 0 54 -9t7 -64t-8 -65t-55 -11h-139q-86 0 -106 -10q-45 -23 -130 -271l-72 -194q-61 -172 -98 -258l-12 -27 q-92 -199 -123 -246q-115 -186 -254 -274q-141 -94 -276 -94q-57 0 -111 16q-135 57 -135 209q0 88 53 154q52 59 125 59q43 0 84 -23q66 -35 65 -135q0 -53 -36 -94q-51 -41 -88 -49q24 -8 49 -8t39 5t57 34q98 86 147 211q30 88 146 515q114 427 114 445t-8 26t-49 9h-115 q-47 0 -54 10q-7 11 -7 63t15 64t77 12h160q57 0 75 12t40 70q70 172 213 318q182 182 434 182h20q125 -6 190 -71t63 -160t-66 -165q-62 -70 -122 -71z"/>
            <glyph glyph-name="uniE536" unicode="" horiz-adv-x="2074" d="M1884 1071q-124 0 -123 117q0 61 29 102q24 44 62 60t44 21t7 38q-6 20 -31 21h-14q-144 -8 -217 -107q-38 -53 -57 -95t-50 -126t-31 -104t5 -28q10 -14 100 -14h114q46 0 54 -9t8 -64t-8 -65t-56 -11h-139q-86 0 -105 -10q-47 -25 -130 -271l-72 -194 q-61 -172 -98 -258l-13 -27q-92 -199 -123 -246q-115 -186 -254 -274q-141 -94 -276 -94q-57 0 -111 16q-43 18 -75 51q-60 62 -60 154t53 158q53 59 125 59q43 0 84 -23q66 -35 66 -135q0 -49 -37 -94q-51 -41 -88 -49q24 -8 49 -8t39 5t57 34q98 86 148 211q12 34 116 414 q144 521 144 550q0 28 -24 30q-9 1 -33 1h-115q-45 0 -53 10q-9 11 -9 63t16 64t77 12h159q56 0 74 12t41 70q70 172 213 318q182 182 434 182h21q125 -6 189 -71t65 -167q-3 -88 -67 -158t-124 -71zM117 389q43 0 78 -29q60 -49 13 -145q-22 -43 -21 -57t30 -34t87 -20 t116 39q57 39 59 86v15q0 77 -52 113q-36 27 -114 60t-133 101t-55 136t20 106q41 90 123 145t164 56t123 -11q84 -31 127 -71q68 -59 68 -126t-48 -102q-36 -29 -76 -29t-55 13q-66 43 -65 108q0 1 9 21t9 31l-4 10q-39 39 -108 39q-104 0 -121 -80v-25q0 -72 63 -106 q29 -18 84 -44t78 -38q96 -57 133 -119q31 -47 31 -115t-35 -131q-83 -134 -219 -161q-88 -25 -145 -25q-100 0 -177 68q-104 84 -104 172l4 20q2 47 36 88t77 41z"/>
            <glyph glyph-name="uniE537" unicode="" horiz-adv-x="2930" d="M2558 821q-55 0 -131 -82q-77 -81 -145 -229t-68 -258t47 -133q6 -4 23 -4q55 0 133 84q77 83 145 231t68 258t-45 129q-10 4 -27 4zM2081 936q125 0 182 -119l8 -10q17 -43 33 -43t27 20q45 54 153 108t212 54q102 0 157 -78q78 -100 78 -236q0 -198 -119 -362 q-193 -266 -414 -266h-12q-137 0 -213 57q-43 39 -53 39q-20 0 -39 -53q-151 -373 -152 -385q0 -27 41 -27h109q43 0 43 -41q0 -47 -51 -47h-699q-25 -1 -40 13t-15 31t15 31t40 13h152q49 0 61 33l432 998q15 34 15 86t-39 53q-27 0 -43 -10q-46 -27 -108 -109t-101 -149 l-37 -68q-18 -39 -49 -39q-8 0 -13 2q-40 23 -12 72l6 6q57 100 136 205q151 202 256 217q16 4 53 4zM1884 1071q-124 0 -123 117q0 61 29 102q24 44 62 60t44 21t7 38q-6 20 -31 21h-14q-144 -8 -217 -107q-38 -53 -57 -95t-50 -126t-31 -104t5 -28q10 -14 100 -14h114 q46 0 54 -9t8 -64t-8 -65t-56 -11h-139q-86 0 -105 -10q-47 -25 -130 -271l-72 -194q-61 -172 -98 -258l-13 -27q-92 -199 -123 -246q-115 -186 -254 -274q-141 -94 -276 -94q-57 0 -111 16q-43 18 -75 51q-60 62 -60 154t53 158q53 59 125 59q43 0 84 -23q66 -35 66 -135 q0 -49 -37 -94q-51 -41 -88 -49q24 -8 49 -8t39 5t57 34q98 86 148 211q12 34 116 414q144 521 144 550q0 28 -24 30q-9 1 -33 1h-115q-45 0 -53 10q-9 11 -9 63t16 64t77 12h159q56 0 74 12t41 70q70 172 213 318q182 182 434 182h21q125 -6 189 -71t65 -167 q-3 -88 -67 -158t-124 -71zM117 389q43 0 78 -29q60 -49 13 -145q-22 -43 -21 -57t30 -34t87 -20t116 39q57 39 59 86v15q0 77 -52 113q-36 27 -114 60t-133 101t-55 136t20 106q41 90 123 145t164 56t123 -11q84 -31 127 -71q68 -59 68 -126t-48 -102q-36 -29 -76 -29 t-55 13q-66 43 -65 108q0 1 9 21t9 31l-4 10q-39 39 -108 39q-104 0 -121 -80v-25q0 -72 63 -106q29 -18 84 -44t78 -38q96 -57 133 -119q31 -47 31 -115t-35 -131q-83 -134 -219 -161q-88 -25 -145 -25q-100 0 -177 68q-104 84 -104 172l4 20q2 47 36 88t77 41z"/>
            <glyph glyph-name="uniE538" unicode="" horiz-adv-x="4210" d="M3586 764q14 0 27 20q45 54 153 108t209 54q102 0 158 -78q78 -100 78 -241q0 -193 -119 -357q-193 -266 -412 -266h-14q-137 0 -213 57q-39 39 -53 39q-20 0 -37 -53q-151 -366 -154 -385q0 -27 41 -27h109q45 0 45 -41q0 -47 -51 -47h-701q-23 -1 -38 13t-15 31t14 31 t39 13h152q49 0 61 33l432 998q15 34 15 86t-37 53q-27 0 -45 -10q-46 -27 -108 -109t-99 -149l-39 -68q-13 -20 -25 -63t-20 -44q-41 -90 -154 -208q-59 -62 -143 -106t-172 -44h-12q-137 0 -213 57q-43 39 -59 39t-34 -53q-151 -373 -151 -392q0 -20 41 -20h106 q45 0 45 -41q0 -47 -51 -47h-698q-25 -1 -40 13t-15 31t15 31t40 13h151q49 0 60 33l434 998q12 61 12 77q0 61 -37 62q-27 0 -43 -10q-47 -27 -108 -109t-101 -149l-38 -68q-16 -39 -48 -39q-10 0 -12 2q-44 24 -8 78q54 94 136 203q157 206 257 219q16 4 53 4 q123 0 183 -119l6 -10q21 -43 35 -43t26 20q45 54 154 108t210 54t156 -78q74 -90 78 -223q186 272 308 287q18 4 55 4q123 0 182 -119l6 -10q21 -43 35 -43zM2699 686q0 114 -43 131q-10 4 -26 4q-55 0 -131 -82t-138 -209q-77 -176 -77 -280t47 -131q8 -4 24 -4 q55 0 132 84t134 211q78 162 78 276zM3910 685q0 113 -43 132q-10 4 -29 4q-53 0 -130 -82q-78 -81 -146 -229t-68 -258t47 -133q6 -4 25 -4q53 0 131 84t135 211q78 162 78 275zM1919 1071q-125 0 -125 125q0 53 31 94q25 44 61 60t43 21q6 5 6 38q-1 21 -28 21h-15 q-164 -6 -241 -143q-36 -63 -75 -166q-38 -103 -38 -123t5 -28q10 -14 99 -14h115q45 0 53 -9t8 -64t-8 -65t-57 -11h-137q-86 0 -106 -10q-20 -11 -44 -59q-26 -48 -88 -212l-69 -194q-61 -172 -99 -258l-14 -27q-78 -178 -121 -246q-119 -186 -259 -277t-271 -91 q-57 0 -113 16q-41 18 -74 51q-61 62 -61 154t55 158q29 35 84 53q14 6 47 6t78 -23q63 -37 64 -135q0 -53 -37 -94q-51 -41 -88 -49q32 -8 53 -8t38 6t54 33q100 88 150 211q26 74 143 508t117 459t-24 27q-9 1 -34 1h-114q-47 0 -55 10q-7 11 -7 63q1 52 15 64t75 12h160 q57 0 75 12t40 70q74 172 213 318q182 182 436 182h20q123 -6 189 -71t65 -167q-6 -88 -69 -158t-121 -71zM117 389q43 0 78 -29q60 -49 13 -145q-22 -43 -21 -57t30 -34t87 -20t116 39q57 39 59 86v15q0 77 -52 113q-36 27 -114 60t-133 101t-55 136t20 106q41 90 123 145 t164 57t123 -12q84 -31 127 -71q68 -59 68 -126t-48 -102q-36 -29 -76 -29t-55 13q-66 43 -65 108q0 1 9 21t9 31l-4 10q-39 39 -108 39q-105 0 -121 -80v-25q0 -72 63 -106q29 -18 84 -44t78 -38q96 -57 133 -119q31 -47 31 -115t-35 -131q-83 -134 -219 -161 q-88 -25 -145 -25q-100 0 -177 68q-104 84 -104 172l4 20q2 47 36 88t77 41z"/>
            <glyph glyph-name="uniE539" unicode="" horiz-adv-x="2533" d="M2263 223q1 33 -17 42q-43 22 -67 22q-53 8 -53 75q0 37 33 58q24 22 65 22q82 -6 112 -58t29 -108q0 -108 -84 -200t-233 -92q-54 0 -150 45t-120 45t-68 -39q-45 -39 -77 -39t-37 11t-5 24v16q0 27 31 51l612 619q0 33 -129 33h-125q-32 0 -98 -100t-92 -103 q-33 0 -33 35l4 32q0 18 22 80t42 97q12 29 23 81t44 54h17q2 0 124 -16t169 -17q47 0 133 27q86 26 121 26q34 0 56 -26t22 -52q0 -25 -44 -53l-510 -483q-14 -8 -32 -36t-19 -46q0 -14 31 -14q16 4 63 4t129 -51q33 -19 41 -21l27 -2q43 0 43 57zM1884 1071 q-124 0 -123 117q0 61 29 102q24 44 62 60t44 21t7 38q-6 20 -31 21h-14q-144 -8 -217 -107q-38 -53 -57 -95t-50 -126t-31 -104t5 -28q10 -14 100 -14h114q46 0 54 -9t8 -64t-8 -65t-56 -11h-139q-86 0 -105 -10q-47 -25 -130 -271l-72 -194q-61 -172 -98 -258l-13 -27 q-92 -199 -123 -246q-115 -186 -254 -274q-141 -94 -276 -94q-57 0 -111 16q-43 18 -75 51q-60 62 -60 154t53 158q53 59 125 59q43 0 84 -23q66 -35 66 -135q0 -49 -37 -94q-51 -41 -88 -49q24 -8 49 -8t39 5t57 34q98 86 148 211q12 34 116 414q144 521 144 550 q0 28 -24 30q-9 1 -33 1h-115q-45 0 -53 10q-9 11 -9 63t16 64t77 12h159q56 0 74 12t41 70q70 172 213 318q182 182 434 182h21q125 -6 189 -71t65 -167q-3 -88 -67 -158t-124 -71zM117 389q43 0 78 -29q60 -49 13 -145q-22 -43 -21 -57t30 -34t87 -20t116 39q57 39 59 86 v15q0 77 -52 113q-36 27 -114 60t-133 101t-55 136t20 106q41 90 123 145t164 56t123 -11q84 -31 127 -71q68 -59 68 -126t-48 -102q-36 -29 -76 -29t-55 13q-66 43 -65 108q0 1 9 21t9 31l-4 10q-39 39 -108 39q-104 0 -121 -80v-25q0 -72 63 -106q29 -18 84 -44t78 -38 q96 -57 133 -119q31 -47 31 -115t-35 -131q-83 -134 -219 -161q-88 -25 -145 -25q-100 0 -177 68q-104 84 -104 172l4 20q2 47 36 88t77 41z"/>
            <glyph glyph-name="uniE53A" unicode="" horiz-adv-x="3710" d="M3338 821q-53 0 -130 -82q-78 -81 -146 -229t-68 -258t47 -133q6 -4 25 -4q53 0 131 84t135 211q78 162 78 276t-45 131q-10 4 -27 4zM2863 936q123 0 182 -119l7 -10q20 -43 34 -43t42 36t137 92q109 54 211 54t157 -78q78 -100 78 -241q0 -197 -119 -357 q-193 -266 -411 -266h-15q-137 0 -213 57q-39 39 -53 39q-20 0 -37 -53q-153 -371 -153 -391q0 -21 40 -21h109q43 0 43 -41q0 -47 -49 -47h-701q-24 -1 -38 13q-33 31 0 62q14 13 38 13h152q49 0 61 33l433 998q14 34 14 86t-33 52t-49 -9q-46 -27 -108 -109t-99 -149 l-39 -68q-18 -39 -47 -39q-11 0 -25 8t-14 26t23 55q239 393 387 413q16 4 55 4zM2263 223q1 33 -17 42q-43 22 -67 22q-53 8 -53 75q0 37 33 58q24 22 65 22q82 -6 112 -58t29 -108q0 -108 -84 -200t-233 -92q-54 0 -150 45t-120 45t-68 -39q-45 -39 -77 -39t-37 11t-5 24 v16q0 27 31 51l612 619q0 33 -129 33h-125q-32 0 -98 -100t-92 -103q-33 0 -33 35l4 32q0 18 22 80t42 97q12 29 23 81t44 54h17q2 0 124 -16t169 -17q47 0 133 27q86 26 121 26q34 0 56 -26t22 -52q0 -25 -44 -53l-510 -483q-14 -8 -32 -36t-19 -46q0 -14 31 -14q16 4 63 4 t129 -51q33 -19 41 -21l27 -2q43 0 43 57zM1884 1071q-124 0 -123 117q0 61 29 102q24 44 62 60t44 21t7 38q-6 20 -31 21h-14q-144 -8 -217 -107q-38 -53 -57 -95t-50 -126t-31 -104t5 -28q10 -14 100 -14h114q46 0 54 -9t8 -64t-8 -65t-56 -11h-139q-86 0 -105 -10 q-47 -25 -130 -271l-72 -194q-61 -172 -98 -258l-13 -27q-92 -199 -123 -246q-115 -186 -254 -274q-141 -94 -276 -94q-57 0 -111 16q-43 18 -75 51q-60 62 -60 154t53 158q53 59 125 59q43 0 84 -23q66 -35 66 -135q0 -49 -37 -94q-51 -41 -88 -49q24 -8 49 -8t39 5t57 34 q98 86 148 211q12 34 116 414q144 521 144 550q0 28 -24 30q-9 1 -33 1h-115q-45 0 -53 10q-9 11 -9 63t16 64t77 12h159q56 0 74 12t41 70q70 172 213 318q182 182 434 182h21q125 -6 189 -71t65 -167q-3 -88 -67 -158t-124 -71zM117 389q43 0 78 -29q60 -49 13 -145 q-22 -43 -21 -57t30 -34t87 -20t116 39q57 39 59 86v15q0 77 -52 113q-36 27 -114 60t-133 101t-55 136t20 106q41 90 123 145t164 56t123 -11q84 -31 127 -71q68 -59 68 -126t-48 -102q-36 -29 -76 -29t-55 13q-66 43 -65 108q0 1 9 21t9 31l-4 10q-39 39 -108 39 q-104 0 -121 -80v-25q0 -72 63 -106q29 -18 84 -44t78 -38q96 -57 133 -119q31 -47 31 -115t-35 -131q-83 -134 -219 -161q-88 -25 -145 -25q-100 0 -177 68q-104 84 -104 172l4 20q2 47 36 88t77 41z"/>
            <glyph glyph-name="uniE53B" unicode="" horiz-adv-x="3479" d="M2839 926h16q2 0 124 -16t169 -17q47 0 133 27q86 26 121 26q34 0 56 -26t22 -52q0 -25 -43 -53l-510 -483q-15 -8 -33 -36t-19 -46q0 -14 31 -14q16 4 62 4t105 -35t67 -37l26 -2q43 0 43 57q0 32 -17 42q-41 22 -67 22q-53 8 -53 75q0 37 33 58q25 23 65 22 q82 -6 112 -58t30 -108q0 -108 -84 -200t-234 -92q-53 0 -149 45t-120 45t-69 -39t-69 -39t-36 6t-14 29v16q0 27 31 51l613 619q0 33 -129 33h-125q-33 0 -99 -100t-92 -103q-33 0 -33 35l4 32q0 18 22 80t42 97q12 29 20 67t22 52q14 16 26 16zM1884 1071q-124 0 -123 117 q0 61 29 102q24 44 62 60t44 21t7 38q-6 20 -31 21h-14q-144 -8 -217 -107q-38 -53 -57 -95t-50 -126t-31 -104t5 -28q10 -14 100 -14h348q58 0 76 12t39 70q74 172 213 318q186 182 436 182h20q125 -6 190 -71q64 -65 62 -160t-66 -165t-122 -71q-125 0 -125 125 q0 53 31 94q24 44 62 60t44 21t6 38q-4 21 -31 21h-14q-145 -8 -216 -107q-38 -53 -57 -95t-50 -126t-31 -104t5 -28q10 -14 99 -14h115q45 0 53 -9t8 -64t-8 -65t-55 -11h-139q-85 0 -105 -10t-55 -74q-20 -45 -78 -197l-70 -194q-61 -172 -98 -258l-14 -27 q-82 -186 -121 -246q-119 -186 -257 -277t-273 -91q-57 0 -113 16q-41 18 -74 51q-61 62 -61 154t55 158q53 59 125 59q43 0 84 -23q66 -35 65 -135q0 -51 -38 -94q-51 -41 -89 -49q36 -8 56 -8t37 6q16 6 53 33q98 84 149 211q30 88 146 515q115 427 115 445t-9 26 q-8 8 -49 9h-301q-86 0 -105 -10q-47 -25 -130 -271l-72 -194q-61 -172 -98 -258l-13 -27q-92 -199 -123 -246q-115 -186 -254 -274q-141 -94 -276 -94q-57 0 -111 16q-43 18 -75 51q-60 62 -60 154t53 158q53 59 125 59q43 0 84 -23q66 -35 66 -135q0 -49 -37 -94 q-51 -41 -88 -49q24 -8 49 -8t39 5t57 34q98 86 148 211q12 34 116 414q144 521 144 550q0 28 -24 30q-9 1 -33 1h-115q-45 0 -53 10q-9 11 -9 63t16 64t77 12h159q56 0 74 12t41 70q70 172 213 318q182 182 434 182h21q125 -6 189 -71t65 -167q-3 -88 -67 -158t-124 -71z M117 389q43 0 78 -29q60 -49 13 -145q-22 -43 -21 -57t30 -34t87 -20t116 39q57 39 59 86v15q0 77 -52 113q-36 27 -114 60t-133 101t-55 136t20 106q41 90 123 145t164 57t123 -12q84 -31 127 -71q68 -59 68 -126t-48 -102q-36 -29 -76 -29t-55 13q-66 43 -65 108q0 1 9 21 t9 31l-4 10q-39 39 -108 39q-105 0 -121 -80v-25q0 -72 63 -106q29 -18 84 -44t78 -38q96 -57 133 -119q31 -47 31 -115t-35 -131q-83 -134 -219 -161q-88 -25 -145 -25q-100 0 -177 68q-104 84 -104 172l4 20q2 47 36 88t77 41z"/>
            <glyph glyph-name="uniE53C" unicode="" horiz-adv-x="2381" d="M2193 1071q-125 0 -125 125q0 53 31 94q19 40 59 58t46 23t6 38q-6 20 -31 21h-12q-164 -6 -243 -144q-33 -56 -73 -162q-41 -106 -41 -126t6 -28q11 -14 101 -14h115q45 0 52 -9t7 -64t-8 -65t-55 -11h-140q-86 0 -105 -10q-45 -24 -130 -271l-72 -194 q-61 -172 -98 -258l-13 -27q-78 -178 -122 -246q-115 -186 -256 -277t-275 -91q-57 0 -110 16q-45 18 -74 51q-61 62 -61 154t53 158q52 59 125 59q41 0 86 -23q63 -37 63 -135q0 -53 -37 -94q-51 -41 -88 -49q24 -8 49 -8t42 6t55 33q102 90 138 189t153 530 q116 430 116 450t-8 28q-8 9 -49 9h-115q-45 0 -52 9q-7 8 -7 62t14 66t76 12h160q57 0 74 12t49 90q68 162 204 298q182 182 436 182h19q126 -6 190 -71t64 -167q-4 -88 -68 -158t-121 -71zM984 925q50 -46 50 -121t-45 -115t-85 -40q-40 1 -66 15t-44 44q-19 30 -20 52 q-29 55 -55 55q-80 0 -127 -98l-311 -680q-14 -37 -52 -37h-188q-41 0 -41 25q0 14 16 53q73 146 144 322t100 241q51 102 51 164q0 39 -33 39q-32 0 -70 -37t-74 -87t-40 -54l-78 -129q-10 -21 -23 -21t-18 4q-18 6 -18 33q-1 27 19 52t20 28q139 223 248 287q75 42 168 30 q42 -8 76 -45t42 -88q6 -16 12 -16t14 7q9 7 9 9q193 151 297 154q72 0 122 -46z"/>
            <glyph glyph-name="uniE53D" unicode="" horiz-adv-x="2889" d="M2720 276q0 -108 -84 -200t-234 -92q-51 0 -147 45t-121 45t-70 -39t-69 -39q-25 0 -37 6t-12 29v16q0 23 30 51l613 619q0 33 -129 33h-125q-33 0 -99 -100t-90 -103q-35 0 -35 35l5 32q0 18 22 80t41 97q12 29 24 81t44 54h16q2 0 124 -16t168 -17q46 0 132 27 q86 26 123 26q36 0 58 -26t22 -51q0 -24 -45 -54l-510 -483q-15 -8 -33 -36t-18 -44t30 -16q16 4 64 4t105 -35t65 -37l26 -2q45 0 45 57q0 32 -17 42q-41 22 -69 22q-53 8 -53 75q0 39 35 58q22 22 63 22q142 -10 142 -166zM2193 1071q-125 0 -125 125q0 53 31 94 q19 40 59 58t46 23t6 38q-6 20 -31 21h-12q-164 -6 -243 -144q-33 -56 -73 -162q-41 -106 -41 -126t6 -28q11 -14 101 -14h115q45 0 52 -9t7 -64t-8 -65t-55 -11h-140q-86 0 -105 -10q-45 -24 -130 -271l-72 -194q-61 -172 -98 -258l-13 -27q-78 -178 -122 -246 q-115 -186 -256 -277t-275 -91q-57 0 -110 16q-45 18 -74 51q-61 62 -61 154t53 158q52 59 125 59q41 0 86 -23q63 -37 63 -135q0 -53 -37 -94q-51 -41 -88 -49q24 -8 49 -8t42 6t55 33q102 90 138 189t153 530q116 430 116 450t-8 28q-8 9 -49 9h-115q-45 0 -52 9 q-7 8 -7 62t14 66t76 12h160q57 0 74 12t49 90q68 162 204 298q182 182 436 182h19q126 -6 190 -71t64 -167q-4 -88 -68 -158t-121 -71zM984 925q50 -46 50 -121t-45 -115t-85 -40q-40 1 -66 15t-44 44q-19 30 -20 52q-29 55 -55 55q-80 0 -127 -98l-311 -680 q-14 -37 -52 -37h-188q-41 0 -41 25q0 14 16 53q73 146 144 322t100 241q51 102 51 164q0 39 -33 39q-32 0 -70 -37t-74 -87t-40 -54l-78 -129q-10 -21 -23 -21t-18 4q-18 6 -18 33q-1 27 19 52t20 28q139 223 248 287q75 42 168 30q42 -8 76 -45t42 -88q6 -16 12 -16t14 7 q9 7 9 9q193 151 297 154q72 0 122 -46z"/>
            <glyph glyph-name="uniE062_uniE885" unicode="" horiz-adv-x="1114" d="M223 -1317q0 -23 -18 -41t-19 -31l2 -4v-4q6 -29 52 -28q68 0 92 147q8 33 8 61q0 84 -59 84q-25 0 -61 -17q-36 -18 -49 -30t-29 -12t-15 16l57 222l-8 -4q-143 -60 -177 -60t-34 16t31 32q199 109 250 147q252 193 316 388t65 367q0 264 -101 379q-59 63 -161 63 t-191 -90q-35 -36 -55 -83q-2 -2 -2 -8q0 -37 41 -37h10q8 2 35 2q70 0 123 -38t53 -124t-42 -130t-116 -46h-8q-76 0 -136 60t-73 167v23q0 128 115 244t287 116h8q23 0 79 -13t99 -29q109 -42 193 -146q83 -103 85 -277v-10q0 -260 -163 -494q-164 -233 -433 -372 q66 -4 91 -4l108 10q14 0 14 -15v-4q-2 -2 -2 -4v-6q0 -86 -145 -86q-28 0 -60 7t-34 7q-14 0 -21 -22l-20 -72q-2 -4 -2 -8t4 -4q3 0 29 14t48 12q176 -4 175 -145q0 -10 -4 -43q-37 -178 -209 -178q-61 0 -98 27q-36 27 -43 51t-7 50t20 43t46 17q59 -10 59 -53zM1023 291 q39 0 65 -27q26 -26 26 -64t-27 -65t-65 -27t-64 28q-26 26 -26 64t26 64t65 27zM1023 -111q39 -1 65 -27t26 -63t-27 -65t-65 -27q-38 0 -64 28q-26 29 -26 65t26 63q27 26 65 26z"/>
            <glyph glyph-name="uniE058_uniE880" unicode="" horiz-adv-x="1089" d="M692 414q166 0 282 -118t116 -272t-88 -265q-88 -110 -234 -156l31 -244q4 -57 4 -84q0 -186 -95 -268t-212 -82q-33 0 -41 20q-47 -18 -103 -18t-93 52q-36 53 -36 115t13 107q35 135 102 204q68 69 138 69t114 -58t43 -141q0 -33 -10 -74q-39 -156 -107 -217 q64 4 114 41q97 72 97 252q0 23 -4 80l-23 227h-8q-20 -2 -97 -2t-180 29t-198 89q-94 60 -154 172q-59 112 -63 263v21q0 173 87 304q46 71 102 144q64 83 360 318l-12 104q-4 70 -5 109q0 242 84 425t215 234q1 -2 7 -4q51 -19 108 -158q53 -154 53 -274q0 -228 -121 -395 q-65 -87 -110 -137t-133 -136q27 -196 33 -276h24zM594 1085v-32q0 -4 3 -33t5 -55q283 195 322 395q6 25 6 45q0 59 -32 94t-84 34t-107 -80t-84 -181t-29 -187zM125 23q0 -103 51 -183t131 -120q156 -78 309 -78q51 0 76 8l-59 528q-205 -25 -205 -190q0 -94 98 -170 q12 -18 13 -29q1 -10 -11 -10t-32 6q-58 25 -114 98t-56 187q0 113 80 208t200 123l-28 258q-201 -131 -325 -281t-128 -343v-12zM537 -639q0 45 -41 45q-55 0 -79 -52l-13 -26q-11 -24 -24 -88q-14 -63 -38 -136t-25 -97q0 -35 41 -35t60 30t39 90t30 85l9 20 q41 119 41 164zM952 -78q0 104 -74 181q-75 77 -178 81q27 -264 62 -516q190 68 190 254z"/>
            <glyph glyph-name="uniE058_uniE881_uniE880" unicode="" horiz-adv-x="1089" d="M272 -532q16 0 16 -10t-1 -13l-119 -440q-2 -4 -2 -11q0 -8 11 -18t25 -10t13 -19q-6 -23 -25 -22h-202q-16 0 -17 22q4 23 25 23q45 0 55 39l84 274q0 12 -8 12t-18 -10l-52 -53q-6 -10 -20 -10t-14 12l137 217q12 16 28 17q40 -6 74 0h10zM1090 24q0 -154 -88 -263 q-88 -110 -234 -158l31 -242q4 -57 4 -82q0 -176 -89 -265t-257 -89q-96 0 -150 49q-53 49 -53 137q0 47 14 98q35 133 103 202t138 69q69 0 113 -56t44 -141q0 -31 -11 -76q-41 -158 -106 -219q178 37 178 287q0 20 -4 82l-23 227h-8q-20 -2 -97 -2t-180 29t-198 89 q-94 60 -154 172q-59 112 -63 263v21q0 173 87 304q46 71 102 144q64 83 360 318l-12 104q-4 70 -5 109q0 242 84 425t215 234q1 -2 7 -4q51 -19 108 -158q53 -154 53 -274q0 -228 -121 -395q-65 -87 -110 -137t-133 -136q27 -197 33 -276h24q166 0 282 -118t116 -272z M594 1085v-32q0 -4 3 -33t5 -55q283 195 322 395q6 25 6 45q0 59 -32 94t-84 34t-107 -80t-84 -181t-29 -187zM125 23q0 -103 51 -183t131 -120q156 -78 309 -78q51 0 76 8l-59 528q-205 -25 -205 -190q0 -94 98 -170q12 -18 13 -29q1 -10 -11 -10t-32 6q-58 25 -114 98 t-56 187q0 113 80 208t200 123l-28 258q-201 -131 -325 -281t-128 -343v-12zM952 -78q0 104 -74 181q-75 77 -178 81q27 -264 62 -516q190 68 190 254zM528 -590q-72 0 -111 -125q-20 -64 -39 -122q-20 -59 -20 -117t43 -58q28 0 39 8q10 8 25 19q15 10 30 55t23 70 q8 26 32 94t25 122q0 54 -47 54z"/>
            <glyph glyph-name="uniE058_uniE881_uniE881" unicode="" horiz-adv-x="1089" d="M305 -535q17 0 17 -9t-3 -13l-118 -438v-4l-2 -5q0 -12 11 -22t24 -10t14 -19q-6 -23 -25 -22h-203q-16 0 -16 24q4 20 25 21q45 0 55 39l84 276q0 10 -9 10t-18 -10l-51 -53q-6 -10 -20 -10t-15 12l138 217q12 16 27 15t38 -1l37 2h10zM594 1085v-32q0 -4 3 -33t5 -55 q283 195 322 395q6 25 6 45q0 59 -32 94t-84 34t-107 -80t-84 -181t-29 -187zM125 23q0 -103 51 -183t131 -120q156 -78 309 -78q51 0 76 8l-59 528q-205 -25 -205 -190q0 -94 98 -170q12 -18 13 -29q1 -10 -11 -10t-32 6q-58 25 -114 98t-56 187q0 113 80 208t200 123 l-28 258q-201 -131 -325 -281t-128 -343v-12zM952 -78q0 104 -74 181q-75 77 -178 81q27 -264 62 -516q190 68 190 254zM586 -535q16 0 16 -12v-10l-123 -449q0 -12 25 -12q26 0 52 7q172 45 171 286q0 23 -4 80l-23 227h-8q-20 -2 -97 -2t-180 29t-198 89q-94 60 -154 173 q-59 113 -63 264v19q0 169 87 304q46 73 88 127q81 104 374 337l-12 102q-4 74 -5 109q0 242 84 425t215 234q1 -2 7 -4q51 -19 108 -158q53 -154 53 -264q0 -178 -76 -333q-30 -58 -87 -130q-56 -71 -94 -109t-107 -106q27 -197 33 -276h24q166 0 282 -118t116 -272 t-88 -265q-88 -110 -234 -156l31 -244q4 -57 4 -82q0 -186 -95 -269t-212 -83h-189q-20 0 -20 26q6 23 24 23q47 0 56 33l84 278q1 10 -9 10t-18 -10l-51 -53q-5 -10 -19 -10t-14 12l8 18l127 199q7 16 25 15t41 -1l37 2h8z"/>
            <glyph glyph-name="uniE058_uniE881_uniE882" unicode="" horiz-adv-x="1089" d="M202 -1036q14 0 13 -19q-6 -23 -25 -22h-202q-16 0 -17 24q4 20 25 21q45 0 55 39l84 276q0 10 -9 10t-17 -10l-52 -53q-6 -10 -20 -10t-14 12l10 18l125 183q8 16 25 15t40 -1l35 2h8q16 0 17 -12l-117 -438q0 -15 11 -25t25 -10zM571 -973q43 0 82 17q74 74 74 231 q0 20 -4 82l-23 227h-8q-20 -2 -97 -2t-180 29t-198 89q-94 60 -154 172q-59 112 -63 263v21q0 173 87 304q46 71 102 144q64 83 360 318l-12 104q-4 70 -5 109q0 242 84 425t215 234q1 -2 7 -4q51 -19 108 -158q53 -154 53 -274q0 -228 -121 -395q-65 -87 -110 -137 t-133 -136q27 -197 33 -276h24q166 0 282 -118t116 -272t-88 -265q-88 -110 -234 -156l31 -244q4 -57 4 -84q0 -186 -95 -268t-212 -82h-11q-18 0 -68 33q-51 32 -71 32t-46 -17t-26 -34q-6 -12 -16 -12q-16 0 -15 48t68 126q17 18 73 64t62 53q66 57 74 98v20q0 74 -57 74 q-49 0 -57 -45q-7 -7 5 -26q13 -19 13 -39v-9q-2 -25 -12 -37t-41 -12q-60 0 -60 66q0 41 29 80q57 77 156 77q63 -1 108 -35t45 -96l-2 -18q-2 -68 -64 -111t-108 -53q-78 -25 -110 -102q45 28 88 28t54 -9q51 -42 64 -42zM594 1085v-32q0 -4 3 -33t5 -55q283 195 322 395 q6 25 6 45q0 59 -32 94t-84 34t-107 -80t-84 -181t-29 -187zM125 23q0 -103 51 -183t131 -120q156 -78 309 -78q51 0 76 8l-59 528q-205 -25 -205 -190q0 -94 98 -170q12 -18 13 -29q1 -10 -11 -10t-32 6q-58 25 -114 98t-56 187q0 113 80 208t200 123l-28 258 q-201 -131 -325 -281t-128 -343v-12zM952 -78q0 104 -74 181q-75 77 -178 81q27 -264 62 -516q190 68 190 254z"/>
            <glyph glyph-name="uniE058_uniE881_uniE883" unicode="" horiz-adv-x="1089" d="M305 -535q17 0 17 -9t-3 -13l-118 -438v-4l-2 -5q0 -12 11 -22t24 -10t14 -19q-6 -23 -25 -22h-203q-16 0 -16 24q4 20 25 21q45 0 55 39l84 276q0 10 -9 10t-18 -10l-51 -53q-6 -10 -20 -10t-15 12l138 217q12 16 27 15t38 -1l37 2h10zM594 1085v-32q0 -4 3 -33t5 -55 q283 195 322 395q6 25 6 45q0 59 -32 94t-84 34t-107 -80t-84 -181t-29 -187zM125 23q0 -103 51 -183t131 -120q156 -78 309 -78q51 0 76 8l-59 528q-205 -25 -205 -190q0 -94 98 -170q12 -18 13 -29q1 -10 -11 -10t-32 6q-58 25 -114 98t-56 187q0 113 80 208t200 123 l-28 258q-201 -131 -325 -281t-128 -343v-12zM952 -78q0 104 -74 181q-75 77 -178 81q27 -264 62 -516q190 68 190 254zM412 -696q-49 0 -60 61v8q0 45 51 76t108 31t101 -36t42 -74q-1 -38 -6 -55q-6 -17 -28 -44t-67 -47q-10 -10 -10 -18t10 -7q68 -29 68 -88 q-8 -88 -78 -127q23 0 73 29q111 68 111 262q0 20 -4 82l-23 227h-8q-20 -2 -97 -2t-180 29t-198 89q-94 60 -154 172q-59 112 -63 263v21q0 173 87 304q46 71 102 144q64 83 360 318l-12 104q-4 70 -5 109q0 242 84 425t215 234q1 -2 7 -4q51 -19 108 -158q53 -154 53 -274 q0 -228 -121 -395q-65 -87 -110 -137t-133 -136q27 -197 33 -276h24q166 0 282 -118t116 -272t-88 -265q-88 -110 -234 -156l31 -244q4 -57 4 -84q0 -186 -95 -268q-94 -82 -198 -82t-170 26q-74 35 -74 95q0 38 24 56t45 17q22 0 37 -14t15 -37v-8q-6 -33 -39 -47 q-4 -4 -4 -10q0 -23 53 -23q86 0 103 100q2 6 2 29t-24 51t-56 27h-8q-43 0 -43 35q0 29 51 28h31q25 0 63 27t37 86q0 59 -41 72q-4 2 -20 2t-25 -21q-4 -4 -4 -16l4 -39q0 -25 -15 -41t-40 -16z"/>
            <glyph glyph-name="uniE058_uniE881_uniE884" unicode="" horiz-adv-x="1089" d="M240 -535q16 0 16 -12q0 -6 -2 -10l-119 -438v-4l-2 -5q0 -12 11 -22q10 -10 24 -10t14 -19q-6 -23 -24 -22h-203q-16 0 -16 24q4 20 24 21q45 0 55 39l84 276q0 10 -9 10t-17 -10l-51 -53q-7 -10 -21 -10t-14 12l137 217q11 16 27 15t39 -1l36 2h11zM594 1085v-32 q0 -4 3 -33t5 -55q283 195 322 395q6 25 6 45q0 59 -32 94t-84 34t-107 -80t-84 -181t-29 -187zM125 23q0 -103 51 -183t131 -120q156 -78 309 -78q51 0 76 8l-59 528q-205 -25 -205 -190q0 -94 98 -170q12 -18 13 -29q1 -10 -11 -10t-32 6q-58 25 -114 98t-56 187 q0 113 80 208t200 123l-28 258q-201 -131 -325 -281t-128 -343v-12zM952 -78q0 104 -74 181q-75 77 -178 81q27 -264 62 -516q190 68 190 254zM553 -545v-8q-39 -67 -138 -181q-100 -114 -145 -147h133l17 86q0 7 4 13t6 10t4 6l74 80q14 10 25 10q19 0 10 -31l-37 -174h63 q12 0 13 -14v-2q-2 -4 -2 -6q-4 -20 -19 -21h-63l-11 -63l-2 -8q0 -25 43 -25t103 43q96 70 96 252q0 20 -4 82l-23 227h-8q-20 -2 -97 -2t-180 29t-198 89q-94 60 -154 172q-59 112 -63 263v21q0 173 87 304q46 71 102 144q64 83 360 318l-12 104q-4 70 -5 109 q0 242 84 425t215 234q1 -2 7 -4q51 -19 108 -158q53 -154 53 -274q0 -228 -121 -395q-65 -87 -110 -137t-133 -136q27 -197 33 -276h24q166 0 282 -118t116 -272t-88 -265q-88 -110 -234 -156l31 -244q4 -57 4 -82q0 -100 -30 -173t-79 -110q-91 -69 -198 -69h-207 q-16 0 -17 16v8q4 21 39 21t53 19q17 19 31 87h-186q-19 0 -19 14t9 21q166 190 190 336q2 23 29 23q11 0 61 -5l64 5q10 0 10 -15z"/>
            <glyph glyph-name="uniE058_uniE881_uniE885" unicode="" horiz-adv-x="1091" d="M291 -530q16 0 16 -15q0 -6 -2 -8l-121 -440v-6q0 -13 12 -23t24 -10q13 0 13 -21q-8 -20 -24 -20h-203q-18 0 -18 22q6 23 24 23q45 0 58 39l82 274q0 12 -9 13q-6 0 -16 -11l-51 -53q-6 -10 -14 -10t-13 2q-8 0 -8 8l10 21l127 198q12 15 28 15h38l37 2h10zM604 969 q326 220 326 455q0 44 -31 78t-74 34q-91 -2 -161 -156t-70 -293q0 -23 2 -38q3 -15 8 -80zM127 27q0 -103 51 -183t131 -120q157 -80 309 -80q41 0 74 8l-57 530q-205 -25 -205 -190q0 -96 98 -170q12 -18 13 -31q-1 -8 -15 -8t-28 6q-59 23 -105 83q-45 60 -61 146 q-4 37 -4 54q0 115 80 209t200 125l-30 256q-201 -133 -324 -284t-127 -341v-10zM954 -76q0 104 -74 182q-75 78 -180 80q35 -309 64 -516q190 70 190 254zM375 -999q0 -8 2 -13q6 -31 51 -30q63 0 88 143q6 37 6 61q0 84 -59 84q-49 0 -107 -47q-16 -12 -30 -12t-15 12v6 l51 250q4 16 29 17l144 -9l108 9q12 0 12 -11v-6l-2 -2v-6q0 -86 -145 -86q-27 0 -62 6l-32 6q-12 0 -23 -24l-18 -80v-8q0 -4 4 -4t4 2h6q57 33 100 32q156 0 156 -139q0 -20 -6 -45q-12 -70 -51 -113q143 67 143 277q0 25 -4 86l-25 229h-8q-18 -2 -95 -2t-180 29t-199 89 q-95 60 -153 172t-63 263v21q0 170 87 304q46 71 102 144q64 83 360 318l-12 104q-4 70 -4 107q0 242 83 426q84 184 213 235q1 -2 7 -4q51 -19 108 -158q55 -152 55 -263q0 -174 -76 -334q-28 -56 -88 -131q-59 -74 -93 -108t-107 -106q20 -147 33 -278h22q166 0 283 -117 t117 -271t-87 -265q-87 -110 -235 -158l29 -242q6 -43 6 -84q0 -229 -158 -313q-69 -37 -149 -37t-148 31t-67 98q0 27 19 44t46 17q57 -9 58 -55q0 -30 -16 -42q-16 -11 -15 -19z"/>
            <glyph glyph-name="uniE058_uniE881_uniE886" unicode="" horiz-adv-x="1093" d="M297 -532q16 0 16 -10t-2 -13l-118 -440l-3 -6q0 -13 12 -23t24 -10q13 0 14 -19q-6 -23 -25 -22h-203q-16 1 -14 23t22 22q45 0 56 39l84 274q0 12 -8 12t-19 -10l-51 -53q-6 -10 -20 -10t-15 12l137 217q12 16 29 17q37 -5 74 0h10zM602 1085v-32q0 -4 4 -29t4 -57 q283 195 322 395q6 25 6 43q0 61 -32 96t-84 34t-107 -80t-84 -181t-29 -189zM133 25q0 -103 51 -183t131 -120q156 -78 310 -78q51 0 75 8l-59 528q-205 -25 -205 -190q0 -94 99 -170q12 -18 12 -28t-11 -11q-11 1 -51 15t-86 74q-45 60 -59 146q-6 27 -6 54q0 115 80 210 t200 123l-28 256q-201 -131 -325 -281t-128 -341v-12zM770 -332q190 70 191 254q0 104 -75 181t-177 81q26 -270 61 -516zM696 414q166 0 282 -117t116 -271t-86 -266q-86 -111 -234 -157l29 -242q4 -29 4 -84q0 -182 -102 -278q-82 -72 -237 -72t-171 110q-6 31 -6 64 q0 147 83 263t206 116q38 0 72 -37t34 -82v-10q-8 -57 -65 -58q-25 -1 -42 17t-22 47q0 27 14 41h7q8 8 8 17t-14 9t-27 -6q-98 -43 -99 -127q0 -25 24 -23t38 3q57 0 91 -37t34 -79q0 -110 -82 -175q182 52 182 291q0 41 -6 86l-22 229h-9q-20 -2 -97 -2t-180 29t-198 89 q-94 60 -153 172t-64 263v21q0 264 249 507q89 87 141 131t159 128l-10 104q-6 53 -6 107q0 244 84 427t215 234q2 -2 7 -4q31 -12 62 -67q97 -171 98 -381q1 -211 -121 -379q-65 -89 -109 -137t-132 -136q15 -134 33 -278h22zM528 -853q0 31 -15 53t-44 22t-57 -35t-37 -86 l-6 -59q0 -62 37 -62q36 0 68 35t46 86q8 14 8 46z"/>
            <glyph glyph-name="uniE058_uniE881_uniE887" unicode="" horiz-adv-x="1087" d="M276 -530q16 0 16 -10t-1 -13l-119 -440v-2l-2 -4q0 -13 11 -23t25 -10t13 -21q-6 -20 -24 -20h-201q-18 0 -19 22q6 23 25 23q45 0 55 39l84 274q0 12 -10 13q-6 0 -16 -11l-52 -53q-6 -10 -14 -10t-10 2q-8 0 -8 8l8 21l129 198q8 15 26 15h39l35 2h10zM598 1087 q0 -23 2 -32l8 -86q279 190 322 395q4 33 4 43q0 61 -32 95t-73 34q-91 -2 -161 -156t-70 -293zM129 27q0 -103 51 -183t131 -120q157 -80 310 -80q39 0 75 8l-59 530q-205 -25 -205 -190q0 -94 98 -170q14 -18 15 -31q1 -8 -15 -8t-28 6q-62 23 -116 95t-54 188t79 209 q79 94 199 125l-28 256q-201 -132 -325 -282t-128 -343v-10zM956 -76q0 104 -74 181q-75 77 -177 81q26 -244 61 -516q190 70 190 254zM539 -567q27 -39 54 -39t45 32t30 31q14 -7 14 -22l-16 -53l-25 -62q-8 -20 -45 -72l-39 -65q-4 -2 -8 -10t-6 -11q-39 -78 -58 -174h15 q55 0 125 39q45 25 73 91t27 140q0 74 -4 103l-23 227h-8q-20 -2 -97 -2t-180 29t-198 89q-94 60 -154 173q-59 113 -63 264v19q0 96 36 191t80 163t133 155t141 131t159 128l-10 102q-6 55 -7 109q0 242 84 426t215 233q5 0 23 -14q50 -39 92 -148q53 -154 53 -274 q-1 -120 -29 -212q-44 -144 -200 -319q-43 -47 -133 -137q12 -105 33 -276h22q164 0 281 -118t117 -272t-88 -265q-87 -110 -234 -156l31 -242q4 -61 4 -84q0 -186 -94 -268t-211 -82l-88 14q-30 0 -48 -8t-20 -8q-12 0 -12 16q0 80 127 207q12 16 27 31t32 42q16 27 24 39 t7 26q0 12 -3 16t-27 8t-49 23q-24 20 -46 20t-34 -2t-39 -54q-27 -51 -33 -59t-15 -8h-4q-12 0 -12 16v9l67 196l6 2q0 18 17 19q11 0 19 -16t18 -16q10 -1 32 13q22 15 46 15t51 -39z"/>
            <glyph glyph-name="uniE059_uniE882" unicode="" horiz-adv-x="1294" d="M1076 1606q18 0 52 -25t48 -25q43 0 77 43q9 15 23 15t14 -15v-2l-29 -71q-13 -28 -43 -52t-58 -24t-78 33t-70 33t-47 -18t-27 -36q-6 -10 -16 -10q-17 0 -17 18v7q2 43 28 87t41 61q16 17 74 65t60 51q47 41 59 98v21q0 76 -57 75q-49 0 -57 -45q-2 -2 -2 -7t9 -21 t9 -37v-10q-2 -25 -12 -37t-41 -13q-62 0 -62 68q0 43 31 80q64 76 161 77t136 -71q12 -25 12 -59l-2 -21q-2 -67 -56 -109t-87 -50t-64 -32q-31 -22 -47 -46q20 4 38 4zM954 -78q0 104 -74 182q-75 78 -180 80q35 -309 64 -516q190 70 190 254zM127 25q0 -103 51 -183 t131 -120q156 -78 309 -78q51 0 74 8l-57 528q-205 -25 -205 -190q0 -96 98 -170q26 -39 2 -39q-10 0 -32 6q-59 23 -105 83q-45 60 -61 146q-4 37 -4 54q0 115 80 210t200 123l-30 256q-201 -133 -324 -283t-127 -339v-12zM999 1343q0 -211 -121 -379q-65 -88 -108 -136 t-133 -136q20 -147 33 -278h22q166 0 283 -117t117 -271t-87 -265q-87 -110 -235 -158l29 -242q6 -43 6 -113t-30 -142q-30 -73 -79 -110q-91 -69 -196 -69q-207 0 -279 94q-57 74 -57 166l8 74q10 55 54 92t109 37t114 -48t49 -112t-34 -106q-52 -64 -132 -64q-23 -8 0 -31 q53 -43 172 -43q55 0 125 39q45 25 73 91t27 126q0 62 -4 115l-25 229h-8q-18 -2 -95 -2t-180 29t-199 89q-95 60 -153 172t-63 263v21q0 170 87 304q46 71 102 144q64 83 360 318l-12 104q-4 70 -4 107q0 242 83 426q84 184 213 235l7 2h10q35 0 37 -24v-13q1 -73 -19 -149 t-41 -76q-91 -2 -161 -157t-70 -294q0 -23 5 -55t5 -63q279 193 322 395q6 25 39 24q34 0 34 -43z"/>
            <glyph glyph-name="uniE058_uniE882" unicode="" horiz-adv-x="1089" d="M571 -973q43 0 82 17q74 74 74 231q0 20 -4 82l-23 227h-8q-20 -2 -97 -2t-180 29t-198 89q-94 60 -154 172q-59 112 -63 263v21q0 173 87 304q46 71 102 144q64 83 360 318l-12 104q-4 70 -5 109q0 242 84 425t215 234q1 -2 7 -4q51 -19 108 -158q53 -154 53 -274 q0 -228 -121 -395q-65 -87 -110 -137t-133 -136q27 -197 33 -276h24q166 0 282 -118t116 -272t-88 -265q-88 -110 -234 -156l31 -244q4 -57 4 -84q0 -186 -95 -268t-212 -82h-11q-18 0 -68 33q-51 32 -71 32t-46 -17t-26 -34q-6 -12 -16 -12q-16 0 -15 48t68 126 q17 18 73 64t62 53q66 57 74 98v20q0 74 -57 74q-49 0 -57 -45q-7 -7 5 -26q13 -19 13 -39v-9q-2 -25 -12 -37t-41 -12q-60 0 -60 66q0 41 29 80q57 77 156 77q63 -1 108 -35t45 -96l-2 -18q-2 -68 -64 -111t-108 -53q-78 -25 -110 -102q45 28 88 28t54 -9q51 -42 64 -42z M594 1085v-32q0 -4 3 -33t5 -55q283 195 322 395q6 25 6 45q0 59 -32 94t-84 34t-107 -80t-84 -181t-29 -187zM125 23q0 -103 51 -183t131 -120q156 -78 309 -78q51 0 76 8l-59 528q-205 -25 -205 -190q0 -94 98 -170q12 -18 13 -29q1 -10 -11 -10t-32 6q-58 25 -114 98 t-56 187q0 113 80 208t200 123l-28 258q-201 -131 -325 -281t-128 -343v-12zM952 -78q0 104 -74 181q-75 77 -178 81q27 -264 62 -516q190 68 190 254z"/>
            <glyph glyph-name="uniE059_uniE883" unicode="" horiz-adv-x="1308" d="M1148 1997q69 0 114 -36t47 -77v-10q0 -90 -109 -141q-8 -3 -8 -13t4 -12q61 -61 61 -109v-8q-8 -53 -60 -97q-51 -44 -137 -44t-120 38t-35 68q0 30 2 37q8 43 72 43q39 0 45 -61q0 -25 -37 -45q-6 -2 -6 -8t17 -18t40 -13q49 0 82 86q6 10 6 43q0 34 -15 60t-42 26h-16 q-43 0 -43 25q0 6 2 10q8 29 49 28h39q24 1 56 21q46 30 46 90q0 61 -43 74h-10q-39 0 -39 -39q0 -14 4 -25v-2l2 -12q0 -23 -17 -38t-40 -15q-51 0 -60 61v10q0 47 40 75t109 28zM954 -78q0 104 -74 182q-75 78 -180 80q35 -309 64 -516q190 70 190 254zM127 25 q0 -103 51 -183t131 -120q156 -78 309 -78q51 0 74 8l-57 528q-205 -25 -205 -190q0 -96 98 -170q26 -39 2 -39q-10 0 -32 6q-59 23 -105 83q-45 60 -61 146q-4 37 -4 54q0 115 80 210t200 123l-30 256q-201 -133 -324 -283t-127 -339v-12zM999 1343q0 -211 -121 -379 q-65 -88 -108 -136t-133 -136q20 -147 33 -278h22q166 0 283 -117t117 -271t-87 -265q-87 -110 -235 -158l29 -242q6 -43 6 -113t-30 -142q-30 -73 -79 -110q-91 -69 -196 -69q-207 0 -279 94q-57 74 -57 166l8 74q10 55 54 92t109 37t114 -48t49 -112t-34 -106 q-52 -64 -132 -64q-23 -8 0 -31q53 -43 172 -43q55 0 125 39q45 25 73 91t27 126q0 62 -4 115l-25 229h-8q-18 -2 -95 -2t-180 29t-199 89q-95 60 -153 172t-63 263v21q0 170 87 304q46 71 102 144q64 83 360 318l-12 104q-4 70 -4 107q0 242 83 426q84 184 213 235l7 2h10 q35 0 37 -24v-13q1 -73 -19 -149t-41 -76q-91 -2 -161 -157t-70 -294q0 -23 5 -55t5 -63q279 193 322 395q6 25 39 24q34 0 34 -43z"/>
            <glyph glyph-name="uniE058_uniE883" unicode="" horiz-adv-x="1089" d="M594 1085v-32q0 -4 3 -33t5 -55q283 195 322 395q6 25 6 45q0 59 -32 94t-84 34t-107 -80t-84 -181t-29 -187zM125 23q0 -103 51 -183t131 -120q156 -78 309 -78q51 0 76 8l-59 528q-205 -25 -205 -190q0 -94 98 -170q12 -18 13 -29q1 -10 -11 -10t-32 6q-58 25 -114 98 t-56 187q0 113 80 208t200 123l-28 258q-201 -131 -325 -281t-128 -343v-12zM952 -78q0 104 -74 181q-75 77 -178 81q27 -264 62 -516q190 68 190 254zM412 -696q-49 0 -60 61v8q0 45 51 76t108 31t101 -36t42 -74q-1 -38 -6 -55q-6 -17 -28 -44t-67 -47q-10 -10 -10 -18 t10 -7q68 -29 68 -88q-8 -88 -78 -127q23 0 73 29q111 68 111 262q0 20 -4 82l-23 227h-8q-20 -2 -97 -2t-180 29t-198 89q-94 60 -154 172q-59 112 -63 263v21q0 173 87 304q46 71 102 144q64 83 360 318l-12 104q-4 70 -5 109q0 242 84 425t215 234q1 -2 7 -4 q51 -19 108 -158q53 -154 53 -274q0 -228 -121 -395q-65 -87 -110 -137t-133 -136q27 -197 33 -276h24q166 0 282 -118t116 -272t-88 -265q-88 -110 -234 -156l31 -244q4 -57 4 -84q0 -186 -95 -268q-94 -82 -198 -82t-170 26q-74 35 -74 95q0 38 24 56t45 17q22 0 37 -14 t15 -37v-8q-6 -33 -39 -47q-4 -4 -4 -10q0 -23 53 -23q86 0 103 100q2 6 2 29t-24 51t-56 27h-8q-43 0 -43 35q0 29 51 28h31q25 0 63 27t37 86q0 59 -41 72q-4 2 -20 2t-25 -21q-4 -4 -4 -16l4 -39q0 -25 -15 -41t-40 -16z"/>
            <glyph glyph-name="uniE059_uniE884" unicode="" horiz-adv-x="1296" d="M1247 1837q10 0 10 -14v-17l-36 -174h61q14 0 14 -14l-2 -4v-4q-4 -20 -20 -21h-62l-12 -63v-8q0 -33 43 -33q20 0 21 -23q-6 -23 -29 -22h-199q-16 0 -16 14v8q0 20 24 20t31 6q6 5 17 13t13 45q3 37 5 43h-188q-16 -1 -16 13t7 22q166 209 189 338q4 20 31 20l59 -4 l65 4q18 0 9 -23q-2 -5 -49 -70t-117 -145t-115 -112h133l17 86q0 14 14 29l74 80q14 10 24 10zM954 -78q0 104 -74 182q-75 78 -180 80q35 -309 64 -516q190 70 190 254zM127 25q0 -103 51 -183t131 -120q156 -78 309 -78q51 0 74 8l-57 528q-205 -25 -205 -190 q0 -96 98 -170q26 -39 2 -39q-10 0 -32 6q-59 23 -105 83q-45 60 -61 146q-4 37 -4 54q0 115 80 210t200 123l-30 256q-201 -133 -324 -283t-127 -339v-12zM999 1343q0 -211 -121 -379q-65 -88 -108 -136t-133 -136q20 -147 33 -278h22q166 0 283 -117t117 -271t-87 -265 q-87 -110 -235 -158l29 -242q6 -43 6 -113t-30 -142q-30 -73 -79 -110q-91 -69 -196 -69q-207 0 -279 94q-57 74 -57 166l8 74q10 55 54 92t109 37t114 -48t49 -112t-34 -106q-52 -64 -132 -64q-23 -8 0 -31q53 -43 172 -43q55 0 125 39q45 25 73 91t27 126q0 62 -4 115 l-25 229h-8q-18 -2 -95 -2t-180 29t-199 89q-95 60 -153 172t-63 263v21q0 170 87 304q46 71 102 144q64 83 360 318l-12 104q-4 70 -4 107q0 242 83 426q84 184 213 235l7 2h10q35 0 37 -24v-13q1 -73 -19 -149t-41 -76q-91 -2 -161 -157t-70 -294q0 -23 5 -55t5 -63 q279 193 322 395q6 25 39 24q34 0 34 -43z"/>
            <glyph glyph-name="uniE058_uniE884" unicode="" horiz-adv-x="1089" d="M594 1085v-32q0 -4 3 -33t5 -55q283 195 322 395q6 25 6 45q0 59 -32 94t-84 34t-107 -80t-84 -181t-29 -187zM125 23q0 -103 51 -183t131 -120q156 -78 309 -78q51 0 76 8l-59 528q-205 -25 -205 -190q0 -94 98 -170q12 -18 13 -29q1 -10 -11 -10t-32 6q-58 25 -114 98 t-56 187q0 113 80 208t200 123l-28 258q-201 -131 -325 -281t-128 -343v-12zM952 -78q0 104 -74 181q-75 77 -178 81q27 -264 62 -516q190 68 190 254zM553 -545v-8q-39 -67 -138 -181q-100 -114 -145 -147h133l17 86q0 7 4 13t6 10t4 6l74 80q14 10 25 10q19 0 10 -31 l-37 -174h63q12 0 13 -14v-2q-2 -4 -2 -6q-4 -20 -19 -21h-63l-11 -63l-2 -8q0 -25 43 -25t103 43q96 70 96 252q0 20 -4 82l-23 227h-8q-20 -2 -97 -2t-180 29t-198 89q-94 60 -154 172q-59 112 -63 263v21q0 173 87 304q46 71 102 144q64 83 360 318l-12 104q-4 70 -5 109 q0 242 84 425t215 234q1 -2 7 -4q51 -19 108 -158q53 -154 53 -274q0 -228 -121 -395q-65 -87 -110 -137t-133 -136q27 -197 33 -276h24q166 0 282 -118t116 -272t-88 -265q-88 -110 -234 -156l31 -244q4 -57 4 -82q0 -100 -30 -173t-79 -110q-91 -69 -198 -69h-207 q-16 0 -17 16v8q4 21 39 21t53 19q17 19 31 87h-186q-19 0 -19 14t9 21q166 190 190 336q2 23 29 23q11 0 61 -5l64 5q10 0 10 -15z"/>
            <glyph glyph-name="uniE059_uniE885" unicode="" horiz-adv-x="1275" d="M1012 1987q176 -19 252 0q12 0 12 -15l-2 -8v-6q0 -86 -144 -86q-27 0 -61 8l-33 6q-12 0 -22 -22l-19 -82v-8q1 -12 7 -6t8 6q57 33 100 32q6 0 31 -4q125 -18 125 -141q0 -18 -6 -43q-33 -178 -207 -178q-61 0 -98 26q-36 27 -43 52q-7 24 -7 50q-1 26 19 43t47 17 l4 -2h6q15 -2 31 -15t16 -33t-4 -28q-4 -10 -17 -22t-14 -25l2 -4v-4q6 -29 49 -29q70 0 95 148q6 37 6 61q0 84 -60 84q-23 0 -59 -17t-47 -30q-15 -12 -31 -12t-16 16l51 252q4 18 29 19zM954 -78q0 104 -74 182q-75 78 -180 80q35 -309 64 -516q190 70 190 254zM127 25 q0 -103 51 -183t131 -120q156 -78 309 -78q51 0 74 8l-57 528q-205 -25 -205 -190q0 -96 98 -170q26 -39 2 -39q-10 0 -32 6q-59 23 -105 83q-45 60 -61 146q-4 37 -4 54q0 115 80 210t200 123l-30 256q-201 -133 -324 -283t-127 -339v-12zM999 1343q0 -211 -121 -379 q-65 -88 -108 -136t-133 -136q20 -147 33 -278h22q166 0 283 -117t117 -271t-87 -265q-87 -110 -235 -158l29 -242q6 -43 6 -113t-30 -142q-30 -73 -79 -110q-91 -69 -196 -69q-207 0 -279 94q-57 74 -57 166l8 74q10 55 54 92t109 37t114 -48t49 -112t-34 -106 q-52 -64 -132 -64q-23 -8 0 -31q53 -43 172 -43q55 0 125 39q45 25 73 91t27 126q0 62 -4 115l-25 229h-8q-18 -2 -95 -2t-180 29t-199 89q-95 60 -153 172t-63 263v21q0 170 87 304q46 71 102 144q64 83 360 318l-12 104q-4 70 -4 107q0 242 83 426q84 184 213 235l7 2h10 q35 0 37 -24v-13q1 -73 -19 -149t-41 -76q-91 -2 -161 -157t-70 -294q0 -23 5 -55t5 -63q279 193 322 395q6 25 39 24q34 0 34 -43z"/>
            <glyph glyph-name="uniE058_uniE885" unicode="" horiz-adv-x="1091" d="M604 969q326 220 326 455q0 44 -31 78t-74 34q-91 -2 -161 -156t-70 -293q0 -23 2 -38q3 -15 8 -80zM127 27q0 -103 51 -183t131 -120q157 -80 309 -80q41 0 74 8l-57 530q-205 -25 -205 -190q0 -96 98 -170q12 -18 13 -31q-1 -8 -15 -8t-28 6q-59 23 -105 83 q-45 60 -61 146q-4 37 -4 54q0 115 80 209t200 125l-30 256q-201 -133 -324 -284t-127 -341v-10zM954 -76q0 104 -74 182q-75 78 -180 80q35 -309 64 -516q190 70 190 254zM375 -999q0 -8 2 -13q6 -31 51 -30q63 0 88 143q6 37 6 61q0 84 -59 84q-49 0 -107 -47 q-16 -12 -30 -12t-15 12v6l51 250q4 16 29 17l144 -9l108 9q12 0 12 -11v-6l-2 -2v-6q0 -86 -145 -86q-27 0 -62 6l-32 6q-12 0 -23 -24l-18 -80v-8q0 -4 4 -4t4 2h6q57 33 100 32q156 0 156 -139q0 -20 -6 -45q-12 -70 -51 -113q143 67 143 277q0 25 -4 86l-25 229h-8 q-18 -2 -95 -2t-180 29t-199 89q-95 60 -153 172t-63 263v21q0 170 87 304q46 71 102 144q64 83 360 318l-12 104q-4 70 -4 107q0 242 83 426q84 184 213 235q1 -2 7 -4q51 -19 108 -158q55 -152 55 -263q0 -174 -76 -334q-28 -56 -88 -131q-59 -74 -93 -108t-107 -106 q20 -147 33 -278h22q166 0 283 -117t117 -271t-87 -265q-87 -110 -235 -158l29 -242q6 -43 6 -84q0 -229 -158 -313q-69 -37 -149 -37t-148 31t-67 98q0 27 19 44t46 17q57 -9 58 -55q0 -30 -16 -42q-16 -11 -15 -19z"/>
            <glyph glyph-name="uniE059_uniE886" unicode="" horiz-adv-x="1298" d="M1143 1660q1 32 -15 54t-45 21q-29 0 -63 -44t-35 -137q0 -61 41 -61q33 0 65 35t46 86q6 14 6 46zM1194 1927q0 10 -16 10t-27 -6q-94 -43 -94 -125q0 -25 18 -24q14 2 57 2t76 -39t33 -83q0 -112 -72 -175q-53 -47 -115 -47t-106 36t-43 160q0 125 81 242t206 117 q39 0 73 -37t33 -84v-10q-8 -55 -63 -56q-25 0 -42 18t-18 44q-1 27 9 37t10 20zM954 -78q0 104 -74 182q-75 78 -180 80q35 -309 64 -516q190 70 190 254zM127 25q0 -103 51 -183t131 -120q156 -78 309 -78q51 0 74 8l-57 528q-205 -25 -205 -190q0 -96 98 -170 q26 -39 2 -39q-10 0 -32 6q-59 23 -105 83q-45 60 -61 146q-4 37 -4 54q0 115 80 210t200 123l-30 256q-201 -133 -324 -283t-127 -339v-12zM999 1343q0 -211 -121 -379q-65 -88 -108 -136t-133 -136q20 -147 33 -278h22q166 0 283 -117t117 -271t-87 -265 q-87 -110 -235 -158l29 -242q6 -43 6 -113t-30 -142q-30 -73 -79 -110q-91 -69 -196 -69q-207 0 -279 94q-57 74 -57 166l8 74q10 55 54 92t109 37t114 -48t49 -112t-34 -106q-52 -64 -132 -64q-23 -8 0 -31q53 -43 172 -43q55 0 125 39q45 25 73 91t27 126q0 62 -4 115 l-25 229h-8q-18 -2 -95 -2t-180 29t-199 89q-95 60 -153 172t-63 263v21q0 170 87 304q46 71 102 144q64 83 360 318l-12 104q-4 70 -4 107q0 242 83 426q84 184 213 235l7 2h10q35 0 37 -24v-13q1 -73 -19 -149t-41 -76q-91 -2 -161 -157t-70 -294q0 -23 5 -55t5 -63 q279 193 322 395q6 25 39 24q34 0 34 -43z"/>
            <glyph glyph-name="uniE058_uniE886" unicode="" horiz-adv-x="1093" d="M602 1085v-32q0 -4 4 -29t4 -57q283 195 322 395q6 25 6 43q0 61 -32 96t-84 34t-107 -80t-84 -181t-29 -189zM133 25q0 -103 51 -183t131 -120q156 -78 310 -78q51 0 75 8l-59 528q-205 -25 -205 -190q0 -94 99 -170q12 -18 12 -28t-11 -11q-11 1 -51 15t-86 74 q-45 60 -59 146q-6 27 -6 54q0 115 80 210t200 123l-28 256q-201 -131 -325 -281t-128 -341v-12zM770 -332q190 70 191 254q0 104 -75 181t-177 81q26 -270 61 -516zM696 414q166 0 282 -117t116 -271t-86 -266q-86 -111 -234 -157l29 -242q4 -29 4 -84q0 -182 -102 -278 q-82 -72 -237 -72t-171 110q-6 31 -6 64q0 147 83 263t206 116q38 0 72 -37t34 -82v-10q-8 -57 -65 -58q-25 -1 -42 17t-22 47q0 27 14 41h7q8 8 8 17t-14 9t-27 -6q-98 -43 -99 -127q0 -25 24 -23t38 3q57 0 91 -37t34 -79q0 -110 -82 -175q182 52 182 291q0 41 -6 86 l-22 229h-9q-20 -2 -97 -2t-180 29t-198 89q-94 60 -153 172t-64 263v21q0 264 249 507q89 87 141 131t159 128l-10 104q-6 53 -6 107q0 244 84 427t215 234q2 -2 7 -4q31 -12 62 -67q97 -171 98 -381q1 -211 -121 -379q-65 -89 -109 -137t-132 -136q15 -134 33 -278h22z M528 -853q0 31 -15 53t-44 22t-57 -35t-37 -86l-6 -59q0 -62 37 -62q36 0 68 35t46 86q8 14 8 46z"/>
            <glyph glyph-name="uniE059_uniE887" unicode="" horiz-adv-x="1331" d="M1137 1980q24 0 51 -38q28 -38 54 -39q26 1 44 31q18 31 29 30q16 0 16 -22q0 -6 -17 -56q-17 -49 -24 -61q-6 -23 -43 -72l-39 -65q-14 -14 -43 -99q-29 -86 -33 -119t-22 -32h-6l-60 12l-55 -12q-10 0 -10 14q0 78 125 209q12 19 20 25t64 83q8 17 8 29t-3 16t-22 7 q-19 4 -50 24q-30 19 -56 19h-21q-18 -4 -33 -33q-44 -82 -49 -85t-10 -3h-4q-14 0 -14 16q11 44 38 121q28 78 32 84q0 20 12 20t14 -6q4 -2 12 -13t18 -12t31 13q22 14 46 14zM952 -78q0 104 -74 181q-75 77 -178 81q27 -264 62 -516q190 68 190 254zM125 23 q0 -103 51 -183t131 -120q156 -78 309 -78q51 0 76 8l-59 528q-205 -25 -205 -190q0 -94 98 -170q12 -18 13 -29q1 -10 -11 -10t-32 6q-58 25 -114 98t-56 187q0 113 80 208t200 123l-28 258q-201 -131 -325 -281t-128 -343v-12zM999 1343q0 -214 -121 -380 q-65 -87 -110 -137t-133 -136q27 -197 33 -276h24q166 0 282 -118t116 -272t-88 -265q-88 -110 -234 -156l31 -244q4 -57 4 -82q0 -100 -30 -173t-79 -110q-91 -69 -196 -69q-207 0 -279 94q-57 74 -57 166l8 74q10 55 55 92t110 37t113 -48t48 -112t-34 -106t-91 -58 q-37 -6 -45 -8t-8 -10t14 -17q51 -45 170 -45q55 0 125 39q45 25 73 91t27 126q0 60 -4 117l-23 227h-8q-20 -2 -97 -2t-180 29t-198 89q-94 60 -154 172q-59 112 -63 263v21q0 173 87 304q46 71 102 144q64 83 360 318l-12 104q-4 70 -5 109q0 242 84 425t215 234q8 2 15 2 q35 0 37 -24v-13q1 -77 -19 -151t-41 -74q-61 -2 -116 -81t-84 -180t-29 -188v-32q0 -4 3 -33t5 -55q283 195 322 395q6 24 30 24q44 0 45 -41z"/>
            <glyph glyph-name="uniE058_uniE887" unicode="" horiz-adv-x="1087" d="M598 1087q0 -23 2 -32l8 -86q279 190 322 395q4 33 4 43q0 61 -32 95t-73 34q-91 -2 -161 -156t-70 -293zM129 27q0 -103 51 -183t131 -120q157 -80 310 -80q39 0 75 8l-59 530q-205 -25 -205 -190q0 -94 98 -170q14 -18 15 -31q1 -8 -15 -8t-28 6q-62 23 -116 95 t-54 188t79 209q79 94 199 125l-28 256q-201 -132 -325 -282t-128 -343v-10zM956 -76q0 104 -74 181q-75 77 -177 81q26 -244 61 -516q190 70 190 254zM539 -567q27 -39 54 -39t45 32t30 31q14 -7 14 -22l-16 -53l-25 -62q-8 -20 -45 -72l-39 -65q-4 -2 -8 -10t-6 -11 q-39 -78 -58 -174h15q55 0 125 39q45 25 73 91t27 140q0 74 -4 103l-23 227h-8q-20 -2 -97 -2t-180 29t-198 89q-94 60 -154 173q-59 113 -63 264v19q0 96 36 191t80 163t133 155t141 131t159 128l-10 102q-6 55 -7 109q0 242 84 426t215 233q5 0 23 -14q50 -39 92 -148 q53 -154 53 -274q-1 -120 -29 -212q-44 -144 -200 -319q-43 -47 -133 -137q12 -105 33 -276h22q164 0 281 -118t117 -272t-88 -265q-87 -110 -234 -156l31 -242q4 -61 4 -84q0 -186 -94 -268t-211 -82l-88 14q-30 0 -48 -8t-20 -8q-12 0 -12 16q0 80 127 207q12 16 27 31 t32 42q16 27 24 39t7 26q0 12 -3 16t-27 8t-49 23q-24 20 -46 20t-34 -2t-39 -54q-27 -51 -33 -59t-15 -8h-4q-12 0 -12 16v9l67 196l6 2q0 18 17 19q11 0 19 -16t18 -16q10 -1 32 13q22 15 46 15t51 -39z"/>
            <glyph glyph-name="uniE059_uniE888" unicode="" horiz-adv-x="1335" d="M1079 1683q-16 17 -29 17t-37 -24t-25 -53q-2 -76 55 -115q38 -26 73 -24t55 18q34 29 13 75q-33 61 -105 106zM1217 1755q41 0 40 100q-2 31 -37 59q-36 28 -67 28q-60 -1 -66 -54q0 -51 97 -123q14 -10 33 -10zM967 1871q0 67 80 99q38 15 71 15h10q198 -17 207 -130 v-14q0 -45 -14 -59q-15 -14 -29 -26t-23 -20t-9 -24t20 -47t20 -80q0 -94 -88 -131q-37 -14 -95 -14t-123 36q-89 49 -89 126q0 45 29 86t70 53q14 6 14 10l-6 10q-45 43 -45 110zM954 -78q0 104 -74 182q-75 78 -180 80q35 -309 64 -516q190 70 190 254zM127 25 q0 -103 51 -183t131 -120q156 -78 309 -78q51 0 74 8l-57 528q-205 -25 -205 -190q0 -96 98 -170q26 -39 2 -39q-10 0 -32 6q-59 23 -105 83q-45 60 -61 146q-4 37 -4 54q0 115 80 210t200 123l-30 256q-201 -133 -324 -283t-127 -339v-12zM999 1343q0 -211 -121 -379 q-65 -88 -108 -136t-133 -136q20 -147 33 -278h22q166 0 283 -117t117 -271t-87 -265q-87 -110 -235 -158l29 -242q6 -43 6 -113t-30 -142q-30 -73 -79 -110q-91 -69 -196 -69q-207 0 -279 94q-57 74 -57 166l8 74q10 55 54 92t109 37t114 -48t49 -112t-34 -106 q-52 -64 -132 -64q-23 -8 0 -31q53 -43 172 -43q55 0 125 39q45 25 73 91t27 126q0 62 -4 115l-25 229h-8q-18 -2 -95 -2t-180 29t-199 89q-95 60 -153 172t-63 263v21q0 170 87 304q46 71 102 144q64 83 360 318l-12 104q-4 70 -4 107q0 242 83 426q84 184 213 235l7 2h10 q35 0 37 -24v-13q1 -73 -19 -149t-41 -76q-91 -2 -161 -157t-70 -294q0 -23 5 -55t5 -63q279 193 322 395q6 25 39 24q34 0 34 -43z"/>
            <glyph glyph-name="uniE058_uniE888" unicode="" horiz-adv-x="1089" d="M604 965q326 226 326 455q0 44 -31 79t-74 35q-91 -4 -161 -157t-70 -292q0 -25 2 -38q3 -13 8 -82zM127 23q0 -103 51 -183t131 -120q156 -78 309 -78q51 0 74 8l-57 528q-205 -25 -205 -190q0 -96 98 -170q26 -39 2 -39q-10 0 -32 6q-59 25 -105 85q-45 60 -61 144 q-4 37 -4 56q0 115 80 209t200 122l-30 258q-201 -133 -324 -283t-127 -341v-12zM954 -78q0 104 -74 181q-75 77 -180 81q33 -295 64 -516q190 68 190 254zM487 -528q78 0 142 -45q43 -31 47 -80v-17q0 -68 -58 -114q-16 -14 -16 -32t20 -47q20 -31 21 -61q0 -30 -4 -47 q88 74 88 242q0 23 -4 84l-23 227h-8q-20 -2 -97 -2t-180 29t-198 89q-94 60 -154 173q-59 113 -63 264v19q0 169 87 304q46 73 88 127q81 104 374 337l-12 102q-4 74 -5 109q0 242 84 425t215 234q1 -2 7 -4q51 -19 108 -158q53 -154 53 -264q0 -178 -76 -333 q-30 -58 -87 -130q-56 -71 -94 -109t-107 -106q27 -197 33 -276h24q166 0 282 -118t116 -272t-88 -265q-88 -110 -234 -156l31 -244q4 -57 4 -82q0 -199 -121 -293q-96 -72 -219 -72q-63 0 -128 35t-85 94q-4 25 -4 33q0 45 28 85q28 39 56 49t28 16t-6 12q-39 37 -39 87 q0 104 90 138q31 12 72 13h12zM555 -774q39 0 39 102q-2 31 -36 57t-64 25q-64 0 -66 -51q0 -33 35 -68q65 -65 92 -65zM389 -829q-23 0 -41 -27q-20 -20 -20 -51t4 -39q23 -84 127 -84q76 4 76 49q0 12 -11 29q-27 55 -102 108q-29 15 -33 15z"/>
            <glyph glyph-name="uniE059_uniE889" unicode="" horiz-adv-x="1277" d="M1049 1769q0 -57 38 -57q33 2 73 48t40 116t-53 70q-63 0 -90 -115q-8 -45 -8 -62zM1010 1509q0 -14 16 -14t27 8q27 12 53 52q26 39 24 77q0 38 -18 37q-29 -4 -43 -4q-57 0 -90 35t-33 75q0 107 72 167q50 43 114 43t103 -37t43 -97v-20q0 -162 -70 -278t-196 -115 q-37 0 -72 38t-35 83v10q8 57 62 57q25 0 44 -17t20 -42t-15 -41q-6 -10 -6 -17zM954 -78q0 104 -74 182q-75 78 -180 80q35 -309 64 -516q190 70 190 254zM127 25q0 -103 51 -183t131 -120q156 -78 309 -78q51 0 74 8l-57 528q-205 -25 -205 -190q0 -96 98 -170 q26 -39 2 -39q-10 0 -32 6q-59 23 -105 83q-45 60 -61 146q-4 37 -4 54q0 115 80 210t200 123l-30 256q-201 -133 -324 -283t-127 -339v-12zM999 1343q0 -211 -121 -379q-65 -88 -108 -136t-133 -136q20 -147 33 -278h22q166 0 283 -117t117 -271t-87 -265 q-87 -110 -235 -158l29 -242q6 -43 6 -113t-30 -142q-30 -73 -79 -110q-91 -69 -196 -69q-207 0 -279 94q-57 74 -57 166l8 74q10 55 54 92t109 37t114 -48t49 -112t-34 -106q-52 -64 -132 -64q-23 -8 0 -31q53 -43 172 -43q55 0 125 39q45 25 73 91t27 126q0 62 -4 115 l-25 229h-8q-18 -2 -95 -2t-180 29t-199 89q-95 60 -153 172t-63 263v21q0 170 87 304q46 71 102 144q64 83 360 318l-12 104q-4 70 -4 107q0 242 83 426q84 184 213 235l7 2h10q35 0 37 -24v-13q1 -73 -19 -149t-41 -76q-91 -2 -161 -157t-70 -294q0 -23 5 -55t5 -63 q279 193 322 395q6 25 39 24q34 0 34 -43z"/>
            <glyph glyph-name="uniE058_uniE889" unicode="" horiz-adv-x="1089" d="M594 1085v-32q0 -4 3 -33t5 -55q283 195 322 395q6 25 6 45q0 59 -32 94t-84 34t-107 -80t-84 -181t-29 -187zM125 23q0 -103 51 -183t131 -120q156 -78 309 -78q51 0 76 8l-59 528q-205 -25 -205 -190q0 -94 98 -170q12 -18 13 -29q1 -10 -11 -10t-32 6q-58 25 -114 98 t-56 187q0 113 80 208t200 123l-28 258q-201 -131 -325 -281t-128 -343v-12zM952 -78q0 104 -74 181q-75 77 -178 81q27 -264 62 -516q190 68 190 254zM387 -1006q1 -14 17 -14t26 8q28 12 56 52t28 78q0 37 -16 36q-29 -4 -49 -4q-59 0 -93 35q-32 35 -32 76q1 107 71 166 q51 43 115 43t103 -37q38 -37 42 -97v-28q0 -223 -102 -320q174 39 174 289q0 23 -4 80l-23 227h-8q-20 -2 -97 -2t-180 29t-198 89q-94 60 -154 172q-59 112 -63 263v21q0 173 87 304q46 71 102 144q64 83 360 318l-12 104q-4 70 -5 109q0 242 84 425t215 234q1 -2 7 -4 q51 -19 108 -158q53 -154 53 -274q0 -228 -121 -395q-65 -87 -110 -137t-133 -136q27 -197 33 -276h24q166 0 282 -118t116 -272t-88 -265q-88 -110 -234 -156l31 -244q4 -57 4 -84q0 -244 -176 -324q-59 -27 -143 -27t-142 30q-59 30 -59 92v8q10 57 61 57q27 0 46 -19 t19 -43t-16 -38q-6 -10 -6 -17zM428 -745q0 -57 39 -58q74 4 102 127q8 25 9 45q0 61 -50 62q-65 0 -92 -115q-8 -31 -8 -61z"/>
            <glyph glyph-name="uniE058_uniE881_uniE880_uniE260" unicode="" horiz-adv-x="1089" d="M1071 -833q0 -84 -125 -171q-10 -8 -38 -30t-36 -29q-8 -6 -12 -6t-12 8t-8 389l-2 127q4 31 34 31q20 0 21 -18l-4 -224q0 -31 38 -9q38 23 52 24q92 -8 92 -92zM979 -844q-1 48 -35 47q-14 0 -30 -17q-16 -18 -21 -28q-4 -10 -4 -35l4 -94q0 -16 9 -16t11 2 q33 23 49 70t17 71zM272 -532q16 0 16 -10t-1 -13l-119 -440q-2 -4 -2 -11q0 -8 11 -18t25 -10t13 -19q-6 -23 -25 -22h-202q-16 0 -17 22q4 23 25 23q45 0 55 39l84 274q0 12 -8 12t-18 -10l-52 -53q-6 -10 -20 -10t-14 12l137 217q12 16 28 17q40 -6 74 0h10zM1090 24 q0 -154 -88 -263q-88 -110 -234 -158l31 -242q4 -57 4 -82q0 -176 -89 -265t-257 -89q-96 0 -150 49q-53 49 -53 137q0 47 14 98q35 133 103 202t138 69q69 0 113 -56t44 -141q0 -31 -11 -76q-41 -158 -106 -219q178 37 178 287q0 20 -4 82l-23 227h-8q-20 -2 -97 -2 t-180 29t-198 89q-94 60 -154 172q-59 112 -63 263v21q0 173 87 304q46 71 102 144q64 83 360 318l-12 104q-4 70 -5 109q0 242 84 425t215 234q1 -2 7 -4q51 -19 108 -158q53 -154 53 -274q0 -228 -121 -395q-65 -87 -110 -137t-133 -136q27 -197 33 -276h24 q166 0 282 -118t116 -272zM594 1085v-32q0 -4 3 -33t5 -55q283 195 322 395q6 25 6 45q0 59 -32 94t-84 34t-107 -80t-84 -181t-29 -187zM125 23q0 -103 51 -183t131 -120q156 -78 309 -78q51 0 76 8l-59 528q-205 -25 -205 -190q0 -94 98 -170q12 -18 13 -29q1 -10 -11 -10 t-32 6q-58 25 -114 98t-56 187q0 113 80 208t200 123l-28 258q-201 -131 -325 -281t-128 -343v-12zM952 -78q0 104 -74 181q-75 77 -178 81q27 -264 62 -516q190 68 190 254zM528 -590q-72 0 -111 -125q-20 -64 -39 -122q-20 -59 -20 -117t43 -58q28 0 39 8q10 8 25 19 q15 10 30 55t23 70q8 26 32 94t25 122q0 54 -47 54z"/>
            <glyph glyph-name="uniE058_uniE881_uniE881_uniE260" unicode="" horiz-adv-x="1089" d="M856 -545q0 13 10 21t23 8q23 0 22 -19q0 -150 -6 -223q0 -30 51 -1q27 15 41 16q92 -8 93 -86q0 -90 -127 -177q-6 -4 -34 -28t-46 -35h-4q-7 0 -12 5t-11 392v127zM997 -848q0 49 -34 49q-15 0 -31 -17q-16 -18 -20 -28t-5 -35l4 -92q0 -18 11 -18q2 0 6 2h4 q33 23 49 70t16 69zM289 -535q16 0 16 -12q0 -6 -2 -10l-119 -438v-4l-2 -5q0 -12 12 -22t24 -10q13 0 13 -19q-6 -23 -24 -22h-203q-16 0 -16 24q4 20 24 21q45 0 56 39l84 276q0 10 -10 10t-17 -10l-51 -53q-6 -10 -20 -10t-15 12l137 217q12 16 28 15t38 -1l37 2h10z M594 1085v-32q0 -4 3 -33t5 -55q283 195 322 395q6 25 6 45q0 59 -32 94t-84 34t-107 -80t-84 -181t-29 -187zM125 23q0 -103 51 -183t131 -120q156 -78 309 -78q51 0 76 8l-59 528q-205 -25 -205 -190q0 -94 98 -170q12 -18 13 -29q1 -10 -11 -10t-32 6q-58 25 -114 98 t-56 187q0 113 80 208t200 123l-28 258q-201 -131 -325 -281t-128 -343v-12zM952 -78q0 104 -74 181q-75 77 -178 81q27 -264 62 -516q190 68 190 254zM586 -535q16 0 16 -12v-10l-123 -449q0 -12 25 -12q26 0 52 7q172 45 171 286q0 23 -4 80l-23 227h-8q-20 -2 -97 -2 t-180 29t-198 89q-94 60 -154 173q-59 113 -63 264v19q0 169 87 304q46 73 88 127q81 104 374 337l-12 102q-4 74 -5 109q0 242 84 425t215 234q1 -2 7 -4q51 -19 108 -158q53 -154 53 -264q0 -178 -76 -333q-30 -58 -87 -130q-56 -71 -94 -109t-107 -106q27 -197 33 -276 h24q166 0 282 -118t116 -272t-88 -265q-88 -110 -234 -156l31 -244q4 -57 4 -82q0 -186 -95 -269t-212 -83h-189q-20 0 -20 26q6 23 24 23q47 0 56 33l84 278q1 10 -9 10t-18 -10l-51 -53q-5 -10 -19 -10t-14 12l8 18l127 199q7 16 25 15t41 -1l37 2h8z"/>
            <glyph glyph-name="uniE058_uniE881_uniE883_uniE260" unicode="" horiz-adv-x="1089" d="M1071 -835q0 -84 -125 -171q-10 -8 -38 -30t-44 -33h-4q-4 0 -12 7t-8 390l-2 127q4 29 34 29q20 0 21 -19l-4 -223q0 -28 38 -7t52 22q92 -8 92 -92zM979 -846q-1 48 -35 47q-14 0 -30 -17q-16 -18 -21 -28q-4 -10 -4 -35l4 -92q0 -18 12 -18l4 2h4q33 23 49 70t17 71z M322 -535q16 0 16 -12q0 -6 -2 -10l-119 -438v-4l-2 -5q0 -12 11 -22q10 -10 24 -10t14 -19q-6 -23 -24 -22h-203q-16 0 -17 24q4 20 25 21q45 0 55 39l84 276q0 10 -9 10t-17 -10l-52 -53q-6 -10 -20 -10t-14 12l137 217q11 16 27 15t38 -1l37 2h11zM594 1085v-32 q0 -4 3 -33t5 -55q283 195 322 395q6 25 6 45q0 59 -32 94t-84 34t-107 -80t-84 -181t-29 -187zM125 23q0 -103 51 -183t131 -120q156 -78 309 -78q51 0 76 8l-59 528q-205 -25 -205 -190q0 -94 98 -170q12 -18 13 -29q1 -10 -11 -10t-32 6q-58 25 -114 98t-56 187 q0 113 80 208t200 123l-28 258q-201 -131 -325 -281t-128 -343v-12zM952 -78q0 104 -74 181q-75 77 -178 81q27 -264 62 -516q190 68 190 254zM412 -696q-49 0 -60 61v8q0 45 51 76t108 31t101 -36t42 -74q-1 -38 -6 -55q-6 -17 -28 -44t-67 -47q-10 -10 -10 -18t10 -7 q68 -29 68 -88q-8 -88 -78 -127q23 0 73 29q111 68 111 262q0 20 -4 82l-23 227h-8q-20 -2 -97 -2t-180 29t-198 89q-94 60 -154 172q-59 112 -63 263v21q0 173 87 304q46 71 102 144q64 83 360 318l-12 104q-4 70 -5 109q0 242 84 425t215 234q1 -2 7 -4q51 -19 108 -158 q53 -154 53 -274q0 -228 -121 -395q-65 -87 -110 -137t-133 -136q27 -197 33 -276h24q166 0 282 -118t116 -272t-88 -265q-88 -110 -234 -156l31 -244q4 -57 4 -84q0 -186 -95 -268q-94 -82 -198 -82t-170 26q-74 35 -74 95q0 38 24 56t45 17q22 0 37 -14t15 -37v-8 q-6 -33 -39 -47q-4 -4 -4 -10q0 -23 53 -23q86 0 103 100q2 6 2 29t-24 51t-56 27h-8q-43 0 -43 35q0 29 51 28h31q25 0 63 27t37 86q0 59 -41 72q-4 2 -20 2t-25 -21q-4 -4 -4 -16l4 -39q0 -25 -15 -41t-40 -16z"/>
            <glyph glyph-name="uniE058_uniE881_uniE884_uniE260" unicode="" horiz-adv-x="1089" d="M1071 -835q0 -84 -125 -171q-10 -8 -38 -30t-44 -33h-4q-4 0 -12 7t-8 390l-2 127q4 29 34 29q20 0 21 -19l-4 -223q0 -28 38 -7t52 22q92 -8 92 -92zM979 -846q-1 48 -35 47q-14 0 -30 -17q-16 -18 -21 -28q-4 -10 -4 -35l4 -92q0 -18 12 -18l4 2h4q33 23 49 70t17 71z M240 -535q16 0 16 -12q0 -6 -2 -10l-119 -438v-4l-2 -5q0 -12 11 -22q10 -10 24 -10t14 -19q-6 -23 -24 -22h-203q-16 0 -16 24q4 20 24 21q45 0 55 39l84 276q0 10 -9 10t-17 -10l-51 -53q-7 -10 -21 -10t-14 12l137 217q11 16 27 15t39 -1l36 2h11zM594 1085v-32 q0 -4 3 -33t5 -55q283 195 322 395q6 25 6 45q0 59 -32 94t-84 34t-107 -80t-84 -181t-29 -187zM125 23q0 -103 51 -183t131 -120q156 -78 309 -78q51 0 76 8l-59 528q-205 -25 -205 -190q0 -94 98 -170q12 -18 13 -29q1 -10 -11 -10t-32 6q-58 25 -114 98t-56 187 q0 113 80 208t200 123l-28 258q-201 -131 -325 -281t-128 -343v-12zM952 -78q0 104 -74 181q-75 77 -178 81q27 -264 62 -516q190 68 190 254zM553 -545v-8q-39 -67 -138 -181q-100 -114 -145 -147h133l17 86q0 7 4 13t6 10t4 6l74 80q14 10 25 10q19 0 10 -31l-37 -174h63 q12 0 13 -14v-2q-2 -4 -2 -6q-4 -20 -19 -21h-63l-11 -63l-2 -8q0 -25 43 -25t103 43q96 70 96 252q0 20 -4 82l-23 227h-8q-20 -2 -97 -2t-180 29t-198 89q-94 60 -154 172q-59 112 -63 263v21q0 173 87 304q46 71 102 144q64 83 360 318l-12 104q-4 70 -5 109 q0 242 84 425t215 234q1 -2 7 -4q51 -19 108 -158q53 -154 53 -274q0 -228 -121 -395q-65 -87 -110 -137t-133 -136q27 -197 33 -276h24q166 0 282 -118t116 -272t-88 -265q-88 -110 -234 -156l31 -244q4 -57 4 -82q0 -100 -30 -173t-79 -110q-91 -69 -198 -69h-207 q-16 0 -17 16v8q4 21 39 21t53 19q17 19 31 87h-186q-19 0 -19 14t9 21q166 190 190 336q2 23 29 23q11 0 61 -5l64 5q10 0 10 -15z"/>
            <glyph glyph-name="uniE058_uniE881_uniE885_uniE260" unicode="" horiz-adv-x="1091" d="M840 -543q0 11 10 21t22 10q23 0 23 -18q0 -156 -6 -224q0 -12 16 -18q8 0 35 15t41 16q92 -4 92 -84q0 -92 -127 -179q-10 -6 -44 -34t-40 -29q-6 0 -11 6t-11 389v129zM903 -987q8 0 12 4q31 19 49 67t17 72q0 24 -11 37q-10 12 -24 12t-30 -18q-16 -17 -21 -27 q-4 -10 -4 -34l4 -95q0 -18 8 -18zM291 -530q16 0 16 -15q0 -6 -2 -8l-121 -440v-6q0 -13 12 -23t24 -10q13 0 13 -21q-8 -20 -24 -20h-203q-18 0 -18 22q6 23 24 23q45 0 58 39l82 274q0 12 -9 13q-6 0 -16 -11l-51 -53q-6 -10 -14 -10t-13 2q-8 0 -8 8l10 21l127 198 q12 15 28 15h38l37 2h10zM604 969q326 220 326 455q0 44 -31 78t-74 34q-91 -2 -161 -156t-70 -293q0 -23 2 -38q3 -15 8 -80zM127 27q0 -103 51 -183t131 -120q157 -80 309 -80q41 0 74 8l-57 530q-205 -25 -205 -190q0 -96 98 -170q12 -18 13 -31q-1 -8 -15 -8t-28 6 q-59 23 -105 83q-45 60 -61 146q-4 37 -4 54q0 115 80 209t200 125l-30 256q-201 -133 -324 -284t-127 -341v-10zM954 -76q0 104 -74 182q-75 78 -180 80q35 -309 64 -516q190 70 190 254zM375 -999q0 -8 2 -13q6 -31 51 -30q63 0 88 143q6 37 6 61q0 84 -59 84 q-49 0 -107 -47q-16 -12 -30 -12t-15 12v6l51 250q4 16 29 17l144 -9l108 9q12 0 12 -11v-6l-2 -2v-6q0 -86 -145 -86q-27 0 -62 6l-32 6q-12 0 -23 -24l-18 -80v-8q0 -4 4 -4t4 2h6q57 33 100 32q156 0 156 -139q0 -20 -6 -45q-12 -70 -51 -113q143 67 143 277q0 25 -4 86 l-25 229h-8q-18 -2 -95 -2t-180 29t-199 89q-95 60 -153 172t-63 263v21q0 170 87 304q46 71 102 144q64 83 360 318l-12 104q-4 70 -4 107q0 242 83 426q84 184 213 235q1 -2 7 -4q51 -19 108 -158q55 -152 55 -263q0 -174 -76 -334q-28 -56 -88 -131q-59 -74 -93 -108 t-107 -106q20 -147 33 -278h22q166 0 283 -117t117 -271t-87 -265q-87 -110 -235 -158l29 -242q6 -43 6 -84q0 -229 -158 -313q-69 -37 -149 -37t-148 31t-67 98q0 27 19 44t46 17q57 -9 58 -55q0 -30 -16 -42q-16 -11 -15 -19z"/>
            <glyph glyph-name="uniE058_uniE881_uniE886_uniE260" unicode="" horiz-adv-x="1095" d="M1096 -833q0 -84 -125 -171l-45 -36t-41 -29q-5 0 -13 8t-8 389l-2 127q4 31 35 31q20 0 21 -18l-5 -224q0 -32 50 -2q27 16 41 17q92 -8 92 -92zM927 -987q9 0 11 2q33 23 55 88t-2 90q-8 10 -22 10q-15 0 -31 -17q-16 -18 -20 -28t-5 -35l5 -94q0 -16 9 -16zM297 -532 q16 0 16 -10t-2 -13l-118 -440l-3 -6q0 -13 12 -23t24 -10q13 0 14 -19q-6 -23 -25 -22h-203q-16 1 -14 23t22 22q45 0 56 39l84 274q0 12 -8 12t-19 -10l-51 -53q-6 -10 -20 -10t-15 12l137 217q12 16 29 17q37 -5 74 0h10zM602 1085v-32q0 -4 4 -29t4 -57q283 195 322 395 q6 25 6 43q0 61 -32 96t-84 34t-107 -80t-84 -181t-29 -189zM133 25q0 -103 51 -183t131 -120q156 -78 310 -78q51 0 75 8l-59 528q-205 -25 -205 -190q0 -94 99 -170q12 -18 12 -28t-11 -11q-11 1 -51 15t-86 74q-45 60 -59 146q-6 27 -6 54q0 115 80 210t200 123l-28 256 q-201 -131 -325 -281t-128 -341v-12zM770 -332q190 70 191 254q0 104 -75 181t-177 81q26 -270 61 -516zM696 414q166 0 282 -117t116 -271t-86 -266q-86 -111 -234 -157l29 -242q4 -29 4 -84q0 -182 -102 -278q-82 -72 -237 -72t-171 110q-6 31 -6 64q0 147 83 263t206 116 q38 0 72 -37t34 -82v-10q-8 -57 -65 -58q-25 -1 -42 17t-22 47q0 27 14 41h7q8 8 8 17t-14 9t-27 -6q-98 -43 -99 -127q0 -25 24 -23t38 3q57 0 91 -37t34 -79q0 -110 -82 -175q182 52 182 291q0 41 -6 86l-22 229h-9q-20 -2 -97 -2t-180 29t-198 89q-94 60 -153 172 t-64 263v21q0 264 249 507q89 87 141 131t159 128l-10 104q-6 53 -6 107q0 244 84 427t215 234q2 -2 7 -4q31 -12 62 -67q97 -171 98 -381q1 -211 -121 -379q-65 -89 -109 -137t-132 -136q15 -134 33 -278h22zM528 -853q0 31 -15 53t-44 22t-57 -35t-37 -86l-6 -59 q0 -62 37 -62q36 0 68 35t46 86q8 14 8 46z"/>
            <glyph glyph-name="uniE058_uniE260_uniE881" unicode="" horiz-adv-x="1089" d="M276 -835q0 -84 -124 -171q-10 -8 -38 -30t-44 -33h-4q-5 0 -10 4q-11 9 -11 393l-2 127q3 29 29 29t26 -19l-4 -223q0 -29 38 -8q38 22 52 23q92 -8 92 -92zM111 -989q2 0 8 2q33 23 49 70t16 71t-10 35q-10 12 -24 12t-30 -17q-16 -18 -22 -28q-4 -10 -4 -35l4 -92 q0 -18 13 -18zM594 1085v-32q0 -4 3 -33t5 -55q283 195 322 395q6 25 6 45q0 59 -32 94t-84 34t-107 -80t-84 -181t-29 -187zM125 23q0 -103 51 -183t131 -120q156 -78 309 -78q51 0 76 8l-59 528q-205 -25 -205 -190q0 -94 98 -170q12 -18 13 -29q1 -10 -11 -10t-32 6 q-58 25 -114 98t-56 187q0 113 80 208t200 123l-28 258q-201 -131 -325 -281t-128 -343v-12zM952 -78q0 104 -74 181q-75 77 -178 81q27 -264 62 -516q190 68 190 254zM586 -535q16 0 16 -12v-10l-123 -449q0 -12 25 -12q26 0 52 7q172 45 171 286q0 23 -4 80l-23 227h-8 q-20 -2 -97 -2t-180 29t-198 89q-94 60 -154 173q-59 113 -63 264v19q0 169 87 304q46 73 88 127q81 104 374 337l-12 102q-4 74 -5 109q0 242 84 425t215 234q1 -2 7 -4q51 -19 108 -158q53 -154 53 -264q0 -178 -76 -333q-30 -58 -87 -130q-56 -71 -94 -109t-107 -106 q27 -197 33 -276h24q166 0 282 -118t116 -272t-88 -265q-88 -110 -234 -156l31 -244q4 -57 4 -82q0 -186 -95 -269t-212 -83h-189q-20 0 -20 26q6 23 24 23q47 0 56 33l84 278q1 10 -9 10t-18 -10l-51 -53q-5 -10 -19 -10t-14 12l8 18l127 199q7 16 25 15t41 -1l37 2h8z"/>
            <glyph glyph-name="uniE059_uniE882_uniE260" unicode="" horiz-adv-x="1519" d="M1186 1554q27 0 65 43q14 14 19 15q18 0 18 -15l-30 -73q-13 -28 -43 -52t-58 -24q-27 0 -77 33t-70 33t-46 -18q-26 -17 -26 -34q-8 -12 -18 -12q-17 0 -17 18v7q4 71 42 114q38 44 55 61q18 17 56 47t50 42q61 54 61 124q0 71 -59 70q-49 0 -57 -45q-2 -2 -2 -7t10 -21 t10 -37v-8q-4 -32 -18 -41q-14 -8 -39 -8t-36 6q-11 8 -20 28q-4 20 -4 31q0 43 31 80q64 76 161 77t136 -71q12 -25 12 -59l-2 -19q-2 -68 -57 -112t-87 -51q-32 -8 -63 -30t-47 -44l25 2q31 0 65 -25t60 -25zM952 -78q0 104 -74 181q-75 77 -178 81q27 -264 62 -516 q190 68 190 254zM125 23q0 -103 51 -183t131 -120q156 -78 309 -78q51 0 76 8l-59 528q-205 -25 -205 -190q0 -94 98 -170q12 -18 13 -29q1 -10 -11 -10t-32 6q-58 25 -114 98t-56 187q0 113 80 208t200 123l-28 258q-201 -131 -325 -281t-128 -343v-12zM999 1343 q0 -214 -121 -380q-65 -87 -110 -137t-133 -136q27 -197 33 -276h24q166 0 282 -118t116 -272t-88 -265q-88 -110 -234 -156l31 -244q4 -57 4 -82q0 -100 -30 -173t-79 -110q-91 -69 -196 -69q-207 0 -279 94q-57 74 -57 166l8 74q10 55 55 92t110 37t113 -48t48 -112 t-34 -106t-91 -58q-37 -6 -45 -8t-8 -10t14 -17q51 -45 170 -45q55 0 125 39q45 25 73 91t27 126q0 60 -4 117l-23 227h-8q-20 -2 -97 -2t-180 29t-198 89q-94 60 -154 172q-59 112 -63 263v21q0 173 87 304q46 71 102 144q64 83 360 318l-12 104q-4 70 -5 109q0 242 84 425 t215 234q8 2 15 2q35 0 37 -24v-13q1 -77 -19 -151t-41 -74q-61 -2 -116 -81t-84 -180t-29 -188v-32q0 -4 3 -33t5 -55q283 195 322 395q6 24 30 24q44 0 45 -41zM1520 1699q0 -67 -99 -134q-8 -6 -36 -30q-28 -23 -33 -23t-11 6t-6 311l-2 102q5 23 25 23t20 -15 q0 -139 -4 -176q0 -12 12 -14l62 25q72 -8 72 -75zM1389 1577q4 0 8 2q27 18 39 56q12 39 12 57t-16 34t-34 -5q-16 -21 -20 -29t-4 -25l4 -76q0 -14 11 -14z"/>
            <glyph glyph-name="uniE058_uniE260_uniE882" unicode="" horiz-adv-x="1089" d="M260 -835q0 -84 -125 -171q-10 -8 -38 -30t-44 -33h-4q-4 0 -12 7t-8 390l-2 127q4 29 34 29q20 0 21 -19l-4 -223q0 -28 38 -7t52 22q92 -8 92 -92zM168 -846q0 48 -34 47q-14 0 -32 -17q-16 -18 -20 -28t-4 -35l4 -92q0 -18 12 -18l4 2h4q34 23 50 70t16 71zM571 -973 q43 0 82 17q74 74 74 231q0 20 -4 82l-23 227h-8q-20 -2 -97 -2t-180 29t-198 89q-94 60 -154 172q-59 112 -63 263v21q0 173 87 304q46 71 102 144q64 83 360 318l-12 104q-4 70 -5 109q0 242 84 425t215 234q1 -2 7 -4q51 -19 108 -158q53 -154 53 -274q0 -228 -121 -395 q-65 -87 -110 -137t-133 -136q27 -197 33 -276h24q166 0 282 -118t116 -272t-88 -265q-88 -110 -234 -156l31 -244q4 -57 4 -84q0 -186 -95 -268t-212 -82h-11q-18 0 -68 33q-51 32 -71 32t-46 -17t-26 -34q-6 -12 -16 -12q-16 0 -15 48t68 126q17 18 73 64t62 53 q66 57 74 98v20q0 74 -57 74q-49 0 -57 -45q-7 -7 5 -26q13 -19 13 -39v-9q-2 -25 -12 -37t-41 -12q-60 0 -60 66q0 41 29 80q57 77 156 77q63 -1 108 -35t45 -96l-2 -18q-2 -68 -64 -111t-108 -53q-78 -25 -110 -102q45 28 88 28t54 -9q51 -42 64 -42zM594 1085v-32 q0 -4 3 -33t5 -55q283 195 322 395q6 25 6 45q0 59 -32 94t-84 34t-107 -80t-84 -181t-29 -187zM125 23q0 -103 51 -183t131 -120q156 -78 309 -78q51 0 76 8l-59 528q-205 -25 -205 -190q0 -94 98 -170q12 -18 13 -29q1 -10 -11 -10t-32 6q-58 25 -114 98t-56 187 q0 113 80 208t200 123l-28 258q-201 -131 -325 -281t-128 -343v-12zM952 -78q0 104 -74 181q-75 77 -178 81q27 -264 62 -516q190 68 190 254z"/>
            <glyph glyph-name="uniE059_uniE883_uniE260" unicode="" horiz-adv-x="1531" d="M1532 1702q0 -68 -100 -135q-6 -7 -20 -17t-23 -19q-10 -9 -21 -15q-2 -4 -5 -4t-9 8t-6 311l-2 102q4 23 26 23q16 0 17 -14q1 -160 -1 -174t9 -19l63 25q72 -4 72 -72zM1396 1577q7 0 11 4q25 18 39 60q14 41 14 55t-12 26q-15 26 -38 0t-24 -53l3 -76q0 -16 7 -16z M1148 1997q69 0 114 -36t47 -77v-10q0 -90 -109 -141q-8 -3 -8 -13t4 -12q61 -61 61 -109v-8q-8 -53 -60 -97q-51 -44 -137 -44t-120 38t-35 68q0 30 2 37q8 43 72 43q39 0 45 -61q0 -25 -37 -45q-6 -2 -6 -8t17 -18t40 -13q49 0 82 86q6 10 6 43q0 34 -15 60t-42 26h-16 q-43 0 -43 25q0 6 2 10q8 29 49 28h39q24 1 56 21q46 30 46 90q0 61 -43 74h-10q-39 0 -39 -39q0 -14 4 -25v-2l2 -12q0 -23 -17 -38t-40 -15q-51 0 -60 61v10q0 47 40 75t109 28zM954 -78q0 104 -74 182q-75 78 -180 80q35 -309 64 -516q190 70 190 254zM127 25 q0 -103 51 -183t131 -120q156 -78 309 -78q51 0 74 8l-57 528q-205 -25 -205 -190q0 -96 98 -170q26 -39 2 -39q-10 0 -32 6q-59 23 -105 83q-45 60 -61 146q-4 37 -4 54q0 115 80 210t200 123l-30 256q-201 -133 -324 -283t-127 -339v-12zM999 1343q0 -211 -121 -379 q-65 -88 -108 -136t-133 -136q20 -147 33 -278h22q166 0 283 -117t117 -271t-87 -265q-87 -110 -235 -158l29 -242q6 -43 6 -113t-30 -142q-30 -73 -79 -110q-91 -69 -196 -69q-207 0 -279 94q-57 74 -57 166l8 74q10 55 54 92t109 37t114 -48t49 -112t-34 -106 q-52 -64 -132 -64q-23 -8 0 -31q53 -43 172 -43q55 0 125 39q45 25 73 91t27 126q0 62 -4 115l-25 229h-8q-18 -2 -95 -2t-180 29t-199 89q-95 60 -153 172t-63 263v21q0 170 87 304q46 71 102 144q64 83 360 318l-12 104q-4 70 -4 107q0 242 83 426q84 184 213 235l7 2h10 q35 0 37 -24v-13q1 -73 -19 -149t-41 -76q-91 -2 -161 -157t-70 -294q0 -23 5 -55t5 -63q279 193 322 395q6 25 39 24q34 0 34 -43z"/>
            <glyph glyph-name="uniE058_uniE260_uniE883" unicode="" horiz-adv-x="1089" d="M260 -835q0 -84 -125 -171q-10 -8 -38 -30t-44 -33h-4q-4 0 -12 7t-8 390l-2 127q4 29 34 29q20 0 21 -19l-4 -223q0 -28 38 -7t52 22q92 -8 92 -92zM168 -846q0 48 -34 47q-14 0 -32 -17q-16 -18 -20 -28t-4 -35l4 -92q0 -18 12 -18l4 2h4q34 23 50 70t16 71zM594 1085 v-32q0 -4 3 -33t5 -55q283 195 322 395q6 25 6 45q0 59 -32 94t-84 34t-107 -80t-84 -181t-29 -187zM125 23q0 -103 51 -183t131 -120q156 -78 309 -78q51 0 76 8l-59 528q-205 -25 -205 -190q0 -94 98 -170q12 -18 13 -29q1 -10 -11 -10t-32 6q-58 25 -114 98t-56 187 q0 113 80 208t200 123l-28 258q-201 -131 -325 -281t-128 -343v-12zM952 -78q0 104 -74 181q-75 77 -178 81q27 -264 62 -516q190 68 190 254zM412 -696q-49 0 -60 61v8q0 45 51 76t108 31t101 -36t42 -74q-1 -38 -6 -55q-6 -17 -28 -44t-67 -47q-10 -10 -10 -18t10 -7 q68 -29 68 -88q-8 -88 -78 -127q23 0 73 29q111 68 111 262q0 20 -4 82l-23 227h-8q-20 -2 -97 -2t-180 29t-198 89q-94 60 -154 172q-59 112 -63 263v21q0 173 87 304q46 71 102 144q64 83 360 318l-12 104q-4 70 -5 109q0 242 84 425t215 234q1 -2 7 -4q51 -19 108 -158 q53 -154 53 -274q0 -228 -121 -395q-65 -87 -110 -137t-133 -136q27 -197 33 -276h24q166 0 282 -118t116 -272t-88 -265q-88 -110 -234 -156l31 -244q4 -57 4 -84q0 -186 -95 -268q-94 -82 -198 -82t-170 26q-74 35 -74 95q0 38 24 56t45 17q22 0 37 -14t15 -37v-8 q-6 -33 -39 -47q-4 -4 -4 -10q0 -23 53 -23q86 0 103 100q2 6 2 29t-24 51t-56 27h-8q-43 0 -43 35q0 29 51 28h31q25 0 63 27t37 86q0 59 -41 72q-4 2 -20 2t-25 -21q-4 -4 -4 -16l4 -39q0 -25 -15 -41t-40 -16z"/>
            </font>
</defs>
</svg>
